<svg xmlns="http://www.w3.org/2000/svg" xmlns:xlink="http://www.w3.org/1999/xlink" contentStyleType="text/css" height="752px" preserveAspectRatio="none" style="width:873px;height:752px;background:#FFFFFF;" version="1.1" viewBox="0 0 873 752" width="873px" zoomAndPan="magnify"><defs/><g><path d="M19.5,7 L847.7619,7 A12.5,12.5 0 0 1 860.2619,19.5 L860.2619,33.2969 L7,33.2969 L7,19.5 A12.5,12.5 0 0 1 19.5,7 " fill="#F1F1F1" style="stroke:#F1F1F1;stroke-width:1.0;"/><rect fill="none" height="739.2969" rx="12.5" ry="12.5" style="stroke:#181818;stroke-width:0.5;" width="853.2619" x="7" y="7"/><line style="stroke:#181818;stroke-width:0.5;" x1="7" x2="860.2619" y1="33.2969" y2="33.2969"/><text fill="#000000" font-family="sans-serif" font-size="14" lengthAdjust="spacing" textLength="186.3955" x="340.4332" y="24.9951">Orderverwerking magazijn</text><rect fill="#F1F1F1" height="40" rx="12.5" ry="12.5" style="stroke:#181818;stroke-width:0.5;" width="103.9395" x="513.83" y="45.2969"/><text fill="#000000" font-family="sans-serif" font-size="14" lengthAdjust="spacing" textLength="93.9395" x="518.83" y="70.1436">Nieuwe order</text><rect fill="#F1F1F1" height="40" rx="12.5" ry="12.5" style="stroke:#181818;stroke-width:0.5;" width="160.1924" x="485.7" y="138.2969"/><text fill="#000000" font-family="sans-serif" font-size="14" lengthAdjust="spacing" textLength="150.1924" x="490.7" y="163.1436">Controleren voorraad</text><rect fill="#F1F1F1" height="40" rx="12.5" ry="12.5" style="stroke:#181818;stroke-width:0.5;" width="221.5244" x="365.04" y="231.2969"/><text fill="#000000" font-family="sans-serif" font-size="14" lengthAdjust="spacing" textLength="211.5244" x="370.04" y="256.1436">Order naar magazijn gestuurd</text><rect fill="#FF0000" height="40" rx="12.5" ry="12.5" style="stroke:#181818;stroke-width:0.5;" width="100.4189" x="449.59" y="603.2969"/><text fill="#000000" font-family="sans-serif" font-size="14" lengthAdjust="spacing" textLength="90.4189" x="454.59" y="628.1436">Geannuleerd</text><rect fill="#F1F1F1" height="40" rx="12.5" ry="12.5" style="stroke:#181818;stroke-width:0.5;" width="212.3027" x="328.65" y="324.2969"/><text fill="#000000" font-family="sans-serif" font-size="14" lengthAdjust="spacing" textLength="202.3027" x="333.65" y="349.1436">Orderverzamellijst uitgeprint</text><rect fill="#F1F1F1" height="40" rx="12.5" ry="12.5" style="stroke:#181818;stroke-width:0.5;" width="233.7676" x="275.92" y="417.2969"/><text fill="#000000" font-family="sans-serif" font-size="14" lengthAdjust="spacing" textLength="223.7676" x="280.92" y="442.1436">Verzameling artikelen compleet</text><rect fill="#F1F1F1" height="40" rx="12.5" ry="12.5" style="stroke:#181818;stroke-width:0.5;" width="249.8525" x="145.87" y="510.2969"/><text fill="#000000" font-family="sans-serif" font-size="14" lengthAdjust="spacing" textLength="239.8525" x="150.87" y="535.1436">Controleren verzameling artikelen</text><rect fill="#F1F1F1" height="40" rx="12.5" ry="12.5" style="stroke:#181818;stroke-width:0.5;" width="131.9258" x="95.84" y="603.2969"/><text fill="#000000" font-family="sans-serif" font-size="14" lengthAdjust="spacing" textLength="121.9258" x="100.84" y="628.1436">Order bevestigen</text><rect fill="#008000" height="40" rx="12.5" ry="12.5" style="stroke:#181818;stroke-width:0.5;" width="285.5977" x="19" y="696.2969"/><text fill="#000000" font-family="sans-serif" font-size="14" lengthAdjust="spacing" textLength="275.5977" x="24" y="721.1436">Order verwerking in magazijn afgerond</text><!--link Nieuwe_order to Voorraad_controle--><g id="link_Nieuwe_order_Voorraad_controle"><path d="M565.8,85.5969 C565.8,101.0369 565.8,116.5869 565.8,132.0269 " fill="none" id="Nieuwe_order-to-Voorraad_controle" style="stroke:#181818;stroke-width:1.0;"/><polygon fill="#181818" points="565.8,138.0269,569.8,129.0269,565.8,133.0269,561.8,129.0269,565.8,138.0269" style="stroke:#181818;stroke-width:1.0;"/><text fill="#000000" font-family="sans-serif" font-size="13" lengthAdjust="spacing" textLength="229.5757" x="566.8" y="116.3638">Nieuwe bestelling van een garagist</text></g><!--link Voorraad_controle to Order_magazijn--><g id="link_Voorraad_controle_Order_magazijn"><path d="M546.71,178.5969 C531.44,194.0369 514.3377,211.3194 499.0777,226.7594 " fill="none" id="Voorraad_controle-to-Order_magazijn" style="stroke:#181818;stroke-width:1.0;"/><polygon fill="#181818" points="494.86,231.0269,504.0315,227.4375,498.3747,227.4707,498.3416,221.8139,494.86,231.0269" style="stroke:#181818;stroke-width:1.0;"/><text fill="#000000" font-family="sans-serif" font-size="13" lengthAdjust="spacing" textLength="81.0913" x="529.8" y="209.3638">Op voorraad</text></g><!--link Voorraad_controle to Geannuleerd--><g id="link_Voorraad_controle_Geannuleerd"><path d="M597.96,178.6569 C604.54,183.7469 610.92,189.6969 615.8,196.2969 C630.91,216.7669 634.8,224.8569 634.8,250.2969 C634.8,250.2969 634.8,250.2969 634.8,531.2969 C634.8,556.0869 637.95,567.3869 620.8,585.2969 C602.49,604.4169 580.51,612.6359 556.12,617.1459 " fill="none" id="Voorraad_controle-to-Geannuleerd" style="stroke:#181818;stroke-width:1.0;"/><polygon fill="#181818" points="550.22,618.2369,559.7973,620.5337,555.1367,617.3277,558.3427,612.6671,550.22,618.2369" style="stroke:#181818;stroke-width:1.0;"/><text fill="#000000" font-family="sans-serif" font-size="13" lengthAdjust="spacing" textLength="214.4619" x="635.8" y="395.3638">Niet op voorraad (administratief)</text></g><!--link Order_magazijn to Order_uitgeprint--><g id="link_Order_magazijn_Order_uitgeprint"><path d="M465.42,271.7269 C462.53,277.3469 459.45,283.5269 456.8,289.2969 C451.6,300.6069 448.5232,307.936 444.4332,318.296 " fill="none" id="Order_magazijn-to-Order_uitgeprint" style="stroke:#181818;stroke-width:1.0;"/><polygon fill="#181818" points="442.23,323.8769,449.2554,316.9745,444.066,319.2262,441.8143,314.0368,442.23,323.8769" style="stroke:#181818;stroke-width:1.0;"/><text fill="#000000" font-family="sans-serif" font-size="13" lengthAdjust="spacing" textLength="162.5889" x="457.8" y="302.3638">Print "Orderverzamelijst"</text></g><!--link Order_uitgeprint to Order_verzameld--><g id="link_Order_uitgeprint_Order_verzameld"><path d="M425.89,364.5969 C418.76,380.0369 411.3355,396.1396 404.2055,411.5796 " fill="none" id="Order_uitgeprint-to-Order_verzameld" style="stroke:#181818;stroke-width:1.0;"/><polygon fill="#181818" points="401.69,417.0269,409.0947,410.533,403.7862,412.4875,401.8317,407.179,401.69,417.0269" style="stroke:#181818;stroke-width:1.0;"/><text fill="#000000" font-family="sans-serif" font-size="13" lengthAdjust="spacing" textLength="183.3584" x="417.8" y="395.3638">Artikelen worden verzameld</text></g><!--link Order_verzameld to Order_controle--><g id="link_Order_verzameld_Order_controle"><path d="M389,457.7469 C385.86,469.1469 380.33,483.0769 370.8,492.2969 C363.42,499.4469 359.91,502.5505 350.52,507.2305 " fill="none" id="Order_verzameld-to-Order_controle" style="stroke:#181818;stroke-width:1.0;"/><polygon fill="#181818" points="345.15,509.9069,354.9893,509.4722,349.625,507.6765,351.4207,502.3123,345.15,509.9069" style="stroke:#181818;stroke-width:1.0;"/><text fill="#000000" font-family="sans-serif" font-size="13" lengthAdjust="spacing" textLength="225.0054" x="382.8" y="488.3638">Controle t.o.v. "Orderverzamelijst"</text></g><!--link Order_controle to Order_voltooid--><g id="link_Order_controle_Order_voltooid"><path d="M182.09,550.7369 C174.64,555.3969 167.99,561.1669 162.8,568.2969 C155.68,578.0769 154.6517,585.7643 156.2017,596.8843 " fill="none" id="Order_controle-to-Order_voltooid" style="stroke:#181818;stroke-width:1.0;"/><polygon fill="#181818" points="157.03,602.8269,159.7492,593.3608,156.3397,597.8748,151.8258,594.4653,157.03,602.8269" style="stroke:#181818;stroke-width:1.0;"/><text fill="#000000" font-family="sans-serif" font-size="13" lengthAdjust="spacing" textLength="179.0229" x="163.8" y="581.3638">Goedgekeurd, print pakbon</text></g><!--link Order_controle to Order_verzameld--><g id="link_Order_controle_Order_verzameld"><path d="M191.42,509.8469 C172.22,501.3869 160.38,489.9769 172.8,475.2969 C186.81,458.7369 224.7077,450.2586 269.6177,445.1986 " fill="none" id="Order_controle-to-Order_verzameld" style="stroke:#181818;stroke-width:1.0;"/><polygon fill="#181818" points="275.58,444.5269,266.1887,441.5597,270.6114,445.0867,267.0844,449.5094,275.58,444.5269" style="stroke:#181818;stroke-width:1.0;"/><text fill="#000000" font-family="sans-serif" font-size="13" lengthAdjust="spacing" textLength="192.8608" x="173.8" y="488.3638">Pakfout, opnieuw verzamelen</text></g><!--link Order_controle to Geannuleerd--><g id="link_Order_controle_Geannuleerd"><path d="M312,550.6669 C322.56,556.0369 333.76,562.1069 343.8,568.2969 C354.62,574.9669 355.37,579.7269 366.8,585.2969 C392.75,597.9569 417.895,605.542 443.435,611.462 " fill="none" id="Order_controle-to-Geannuleerd" style="stroke:#181818;stroke-width:1.0;"/><polygon fill="#181818" points="449.28,612.8169,441.4157,606.8879,444.4091,611.6878,439.6092,614.6813,449.28,612.8169" style="stroke:#181818;stroke-width:1.0;"/><text fill="#000000" font-family="sans-serif" font-size="13" lengthAdjust="spacing" textLength="252.1226" x="367.8" y="581.3638">Niet op voorraad (werkelijke voorraad)</text></g><!--link Order_voltooid to Order_ingepakt--><g id="link_Order_voltooid_Order_ingepakt"><path d="M161.8,643.5969 C161.8,659.0369 161.8,674.5869 161.8,690.0269 " fill="none" id="Order_voltooid-to-Order_ingepakt" style="stroke:#181818;stroke-width:1.0;"/><polygon fill="#181818" points="161.8,696.0269,165.8,687.0269,161.8,691.0269,157.8,687.0269,161.8,696.0269" style="stroke:#181818;stroke-width:1.0;"/><text fill="#000000" font-family="sans-serif" font-size="13" lengthAdjust="spacing" textLength="228.7124" x="162.8" y="674.3638">Artikelen en pakbon in krat pakken</text></g><!--SRC=[XLJ1Rjim3BtxAuZqa0reym4z31Xsw6tjgTU0YHXDjIqPDErWBVhla-J8aXkt2mmaaVaU7n-V_SSe0cex-GkA-YERJeopLIye18-iY4VYCt5jhDwtgF7Ll5Xugy1_VXiQphHteGhkxdx0itFCY6f_T5RODGJtbo8uK2_KD9u5HhH0P44ZepQzHAvhQ22C0dBRUtZiOBnKVW5x8BHsQ8XOJGe4N0R2DrIjiRupenWwVQyYrOTUkVrWH5F7needUuhVc-JCAxRKc9TUDWL70SWigJWe-ibYQcgy1-TWdeNvPi6I0PcayFLN-Yaxjnjtgv8AjXLRHzU8SoO8Ud2aDDKqiBg5INc7zS47uMk6OgOdh4zka5llj0qhdsUYJqd-jwOGkp1AJVFXObVp05cHpnTvvG8Bb_qrZGF6Gkst7lxM_XGckYdjcqjKOvutWFqYu6LXyfx3wYxA8k0gZYKgAWIBo32dJFl7Ol2kH_GoWLVGP6XSBkIG5TXyMAAVKoZymuUpAKVNTjxx4hwCuTgmQqm5mUTZ7sZqengzA4yBl2xFBvsmijakF6bYPqkxvetVQ2OgNIlZTSEae7glFlYPUgG6cNVbhLTLs-ts7m00]--></g></svg>