<svg xmlns="http://www.w3.org/2000/svg" xmlns:xlink="http://www.w3.org/1999/xlink" contentStyleType="text/css" height="808px" preserveAspectRatio="none" style="width:755px;height:808px;background:#FFFFFF;" version="1.1" viewBox="0 0 755 808" width="755px" zoomAndPan="magnify"><defs/><g><rect fill="none" height="145.3359" style="stroke:#000000;stroke-width:1.5;" width="738.9717" x="10" y="522.7578"/><line style="stroke:#181818;stroke-width:0.5;stroke-dasharray:5.0,5.0;" x1="52" x2="52" y1="81.2969" y2="727.2266"/><line style="stroke:#181818;stroke-width:0.5;stroke-dasharray:5.0,5.0;" x1="270.5093" x2="270.5093" y1="81.2969" y2="727.2266"/><line style="stroke:#181818;stroke-width:0.5;stroke-dasharray:5.0,5.0;" x1="533.3057" x2="533.3057" y1="81.2969" y2="727.2266"/><text fill="#000000" font-family="sans-serif" font-size="14" lengthAdjust="spacing" textLength="59.3223" x="20" y="77.9951">Garagist</text><ellipse cx="52.6611" cy="13.5" fill="#E2E2F0" rx="8" ry="8" style="stroke:#181818;stroke-width:0.5;"/><path d="M52.6611,21.5 L52.6611,48.5 M39.6611,29.5 L65.6611,29.5 M52.6611,48.5 L39.6611,63.5 M52.6611,48.5 L65.6611,63.5 " fill="none" style="stroke:#181818;stroke-width:0.5;"/><text fill="#000000" font-family="sans-serif" font-size="14" lengthAdjust="spacing" textLength="59.3223" x="20" y="739.2217">Garagist</text><ellipse cx="52.6611" cy="751.0234" fill="#E2E2F0" rx="8" ry="8" style="stroke:#181818;stroke-width:0.5;"/><path d="M52.6611,759.0234 L52.6611,786.0234 M39.6611,767.0234 L65.6611,767.0234 M52.6611,786.0234 L39.6611,801.0234 M52.6611,786.0234 L65.6611,801.0234 " fill="none" style="stroke:#181818;stroke-width:0.5;"/><rect fill="#E2E2F0" height="30.2969" rx="2.5" ry="2.5" style="stroke:#181818;stroke-width:0.5;" width="202.9453" x="169.5093" y="50"/><text fill="#000000" font-family="sans-serif" font-size="14" lengthAdjust="spacing" textLength="188.9453" x="176.5093" y="69.9951">Orderverwerking_magazijn</text><rect fill="#E2E2F0" height="30.2969" rx="2.5" ry="2.5" style="stroke:#181818;stroke-width:0.5;" width="202.9453" x="169.5093" y="726.2266"/><text fill="#000000" font-family="sans-serif" font-size="14" lengthAdjust="spacing" textLength="188.9453" x="176.5093" y="746.2217">Orderverwerking_magazijn</text><rect fill="#E2E2F0" height="30.2969" rx="2.5" ry="2.5" style="stroke:#181818;stroke-width:0.5;" width="158.1836" x="454.3057" y="50"/><text fill="#000000" font-family="sans-serif" font-size="14" lengthAdjust="spacing" textLength="144.1836" x="461.3057" y="69.9951">Transporteren_order</text><rect fill="#E2E2F0" height="30.2969" rx="2.5" ry="2.5" style="stroke:#181818;stroke-width:0.5;" width="158.1836" x="454.3057" y="726.2266"/><text fill="#000000" font-family="sans-serif" font-size="14" lengthAdjust="spacing" textLength="144.1836" x="461.3057" y="746.2217">Transporteren_order</text><polygon fill="#181818" points="258.9819,108.4297,268.9819,112.4297,258.9819,116.4297,262.9819,112.4297" style="stroke:#181818;stroke-width:1.0;"/><line style="stroke:#181818;stroke-width:1.0;" x1="52.6611" x2="264.9819" y1="112.4297" y2="112.4297"/><text fill="#000000" font-family="sans-serif" font-size="13" lengthAdjust="spacing" textLength="134.2275" x="59.6611" y="107.3638">Plaatst nieuwe order</text><line style="stroke:#181818;stroke-width:1.0;" x1="270.9819" x2="312.9819" y1="141.5625" y2="141.5625"/><line style="stroke:#181818;stroke-width:1.0;" x1="312.9819" x2="312.9819" y1="141.5625" y2="154.5625"/><line style="stroke:#181818;stroke-width:1.0;" x1="271.9819" x2="312.9819" y1="154.5625" y2="154.5625"/><polygon fill="#181818" points="281.9819,150.5625,271.9819,154.5625,281.9819,158.5625,277.9819,154.5625" style="stroke:#181818;stroke-width:1.0;"/><text fill="#000000" font-family="sans-serif" font-size="13" lengthAdjust="spacing" textLength="117.1523" x="277.9819" y="136.4966">Voorraad controle</text><polygon fill="#181818" points="63.6611,179.6953,53.6611,183.6953,63.6611,187.6953,59.6611,183.6953" style="stroke:#181818;stroke-width:1.0;"/><line style="stroke:#181818;stroke-width:1.0;stroke-dasharray:2.0,2.0;" x1="57.6611" x2="269.9819" y1="183.6953" y2="183.6953"/><text fill="#000000" font-family="sans-serif" font-size="13" lengthAdjust="spacing" textLength="194.3208" x="69.6611" y="178.6294">Niet op voorraad (Annulering)</text><line style="stroke:#181818;stroke-width:1.0;" x1="270.9819" x2="312.9819" y1="212.8281" y2="212.8281"/><line style="stroke:#181818;stroke-width:1.0;" x1="312.9819" x2="312.9819" y1="212.8281" y2="225.8281"/><line style="stroke:#181818;stroke-width:1.0;" x1="271.9819" x2="312.9819" y1="225.8281" y2="225.8281"/><polygon fill="#181818" points="281.9819,221.8281,271.9819,225.8281,281.9819,229.8281,277.9819,225.8281" style="stroke:#181818;stroke-width:1.0;"/><text fill="#000000" font-family="sans-serif" font-size="13" lengthAdjust="spacing" textLength="248.4155" x="277.9819" y="207.7622">Print "Orderverzamellijst" bij voorraad</text><line style="stroke:#181818;stroke-width:1.0;" x1="270.9819" x2="312.9819" y1="254.9609" y2="254.9609"/><line style="stroke:#181818;stroke-width:1.0;" x1="312.9819" x2="312.9819" y1="254.9609" y2="267.9609"/><line style="stroke:#181818;stroke-width:1.0;" x1="271.9819" x2="312.9819" y1="267.9609" y2="267.9609"/><polygon fill="#181818" points="281.9819,263.9609,271.9819,267.9609,281.9819,271.9609,277.9819,267.9609" style="stroke:#181818;stroke-width:1.0;"/><text fill="#000000" font-family="sans-serif" font-size="13" lengthAdjust="spacing" textLength="138.7915" x="277.9819" y="249.895">Artikelen verzamelen</text><line style="stroke:#181818;stroke-width:1.0;" x1="270.9819" x2="312.9819" y1="297.0938" y2="297.0938"/><line style="stroke:#181818;stroke-width:1.0;" x1="312.9819" x2="312.9819" y1="297.0938" y2="310.0938"/><line style="stroke:#181818;stroke-width:1.0;" x1="271.9819" x2="312.9819" y1="310.0938" y2="310.0938"/><polygon fill="#181818" points="281.9819,306.0938,271.9819,310.0938,281.9819,314.0938,277.9819,310.0938" style="stroke:#181818;stroke-width:1.0;"/><text fill="#000000" font-family="sans-serif" font-size="13" lengthAdjust="spacing" textLength="177.0552" x="277.9819" y="292.0278">Artikelen in krat verpakken</text><polygon fill="#181818" points="521.3975,335.2266,531.3975,339.2266,521.3975,343.2266,525.3975,339.2266" style="stroke:#181818;stroke-width:1.0;"/><line style="stroke:#181818;stroke-width:1.0;" x1="270.9819" x2="527.3975" y1="339.2266" y2="339.2266"/><text fill="#000000" font-family="sans-serif" font-size="13" lengthAdjust="spacing" textLength="186.856" x="277.9819" y="334.1606">Geef krat door aan transport</text><line style="stroke:#181818;stroke-width:1.0;" x1="533.3975" x2="575.3975" y1="368.3594" y2="368.3594"/><line style="stroke:#181818;stroke-width:1.0;" x1="575.3975" x2="575.3975" y1="368.3594" y2="381.3594"/><line style="stroke:#181818;stroke-width:1.0;" x1="534.3975" x2="575.3975" y1="381.3594" y2="381.3594"/><polygon fill="#181818" points="544.3975,377.3594,534.3975,381.3594,544.3975,385.3594,540.3975,381.3594" style="stroke:#181818;stroke-width:1.0;"/><text fill="#000000" font-family="sans-serif" font-size="13" lengthAdjust="spacing" textLength="110.5127" x="540.3975" y="363.2935">Krat in bus laden</text><line style="stroke:#181818;stroke-width:1.0;" x1="533.3975" x2="575.3975" y1="410.4922" y2="410.4922"/><line style="stroke:#181818;stroke-width:1.0;" x1="575.3975" x2="575.3975" y1="410.4922" y2="423.4922"/><line style="stroke:#181818;stroke-width:1.0;" x1="534.3975" x2="575.3975" y1="423.4922" y2="423.4922"/><polygon fill="#181818" points="544.3975,419.4922,534.3975,423.4922,544.3975,427.4922,540.3975,423.4922" style="stroke:#181818;stroke-width:1.0;"/><text fill="#000000" font-family="sans-serif" font-size="13" lengthAdjust="spacing" textLength="95.9575" x="540.3975" y="405.4263">Start transport</text><line style="stroke:#181818;stroke-width:1.0;" x1="533.3975" x2="575.3975" y1="452.625" y2="452.625"/><line style="stroke:#181818;stroke-width:1.0;" x1="575.3975" x2="575.3975" y1="452.625" y2="465.625"/><line style="stroke:#181818;stroke-width:1.0;" x1="534.3975" x2="575.3975" y1="465.625" y2="465.625"/><polygon fill="#181818" points="544.3975,461.625,534.3975,465.625,544.3975,469.625,540.3975,465.625" style="stroke:#181818;stroke-width:1.0;"/><text fill="#000000" font-family="sans-serif" font-size="13" lengthAdjust="spacing" textLength="131.79" x="540.3975" y="447.5591">Rijden naar garagist</text><line style="stroke:#181818;stroke-width:1.0;" x1="533.3975" x2="575.3975" y1="494.7578" y2="494.7578"/><line style="stroke:#181818;stroke-width:1.0;" x1="575.3975" x2="575.3975" y1="494.7578" y2="507.7578"/><line style="stroke:#181818;stroke-width:1.0;" x1="534.3975" x2="575.3975" y1="507.7578" y2="507.7578"/><polygon fill="#181818" points="544.3975,503.7578,534.3975,507.7578,544.3975,511.7578,540.3975,507.7578" style="stroke:#181818;stroke-width:1.0;"/><text fill="#000000" font-family="sans-serif" font-size="13" lengthAdjust="spacing" textLength="153.5879" x="540.3975" y="489.6919">Aangekomen op locatie</text><path d="M10,522.7578 L74.4429,522.7578 L74.4429,529.8906 L64.4429,539.8906 L10,539.8906 L10,522.7578 " fill="#EEEEEE" style="stroke:#000000;stroke-width:1.5;"/><rect fill="none" height="145.3359" style="stroke:#000000;stroke-width:1.5;" width="738.9717" x="10" y="522.7578"/><text fill="#000000" font-family="sans-serif" font-size="13" font-weight="bold" lengthAdjust="spacing" textLength="19.4429" x="25" y="535.8247">alt</text><text fill="#000000" font-family="sans-serif" font-size="11" font-weight="bold" lengthAdjust="spacing" textLength="124.2764" x="89.4429" y="534.9683">[Afleveren voltooid]</text><line style="stroke:#181818;stroke-width:1.0;" x1="533.3975" x2="575.3975" y1="561.0234" y2="561.0234"/><line style="stroke:#181818;stroke-width:1.0;" x1="575.3975" x2="575.3975" y1="561.0234" y2="574.0234"/><line style="stroke:#181818;stroke-width:1.0;" x1="534.3975" x2="575.3975" y1="574.0234" y2="574.0234"/><polygon fill="#181818" points="544.3975,570.0234,534.3975,574.0234,544.3975,578.0234,540.3975,574.0234" style="stroke:#181818;stroke-width:1.0;"/><text fill="#000000" font-family="sans-serif" font-size="13" lengthAdjust="spacing" textLength="196.5742" x="540.3975" y="555.9575">Artikelen en pakbon afleveren</text><polygon fill="#181818" points="63.6611,599.1563,53.6611,603.1563,63.6611,607.1563,59.6611,603.1563" style="stroke:#181818;stroke-width:1.0;"/><line style="stroke:#181818;stroke-width:1.0;stroke-dasharray:2.0,2.0;" x1="57.6611" x2="532.3975" y1="603.1563" y2="603.1563"/><text fill="#000000" font-family="sans-serif" font-size="13" lengthAdjust="spacing" textLength="99.8867" x="69.6611" y="598.0903">Order afgerond</text><line style="stroke:#000000;stroke-width:1.0;stroke-dasharray:2.0,2.0;" x1="10" x2="748.9717" y1="612.1563" y2="612.1563"/><text fill="#000000" font-family="sans-serif" font-size="11" font-weight="bold" lengthAdjust="spacing" textLength="119.7163" x="15" y="622.3667">[Afleveren mislukt]</text><line style="stroke:#181818;stroke-width:1.0;" x1="533.3975" x2="575.3975" y1="647.0938" y2="647.0938"/><line style="stroke:#181818;stroke-width:1.0;" x1="575.3975" x2="575.3975" y1="647.0938" y2="660.0938"/><line style="stroke:#181818;stroke-width:1.0;" x1="534.3975" x2="575.3975" y1="660.0938" y2="660.0938"/><polygon fill="#181818" points="544.3975,656.0938,534.3975,660.0938,544.3975,664.0938,540.3975,660.0938" style="stroke:#181818;stroke-width:1.0;"/><text fill="#000000" font-family="sans-serif" font-size="13" lengthAdjust="spacing" textLength="81.2817" x="540.3975" y="642.0278">Order retour</text><line style="stroke:#181818;stroke-width:1.0;" x1="533.3975" x2="575.3975" y1="696.2266" y2="696.2266"/><line style="stroke:#181818;stroke-width:1.0;" x1="575.3975" x2="575.3975" y1="696.2266" y2="709.2266"/><line style="stroke:#181818;stroke-width:1.0;" x1="534.3975" x2="575.3975" y1="709.2266" y2="709.2266"/><polygon fill="#181818" points="544.3975,705.2266,534.3975,709.2266,544.3975,713.2266,540.3975,709.2266" style="stroke:#181818;stroke-width:1.0;"/><text fill="#000000" font-family="sans-serif" font-size="13" lengthAdjust="spacing" textLength="135.0845" x="540.3975" y="691.1606">Terug naar vestiging</text><!--SRC=[fPD1QuD048Nl-ok6ND8U-WToA7ZAeT26DlGQ9ZgHrNLMnj50Vdt7YY61c6AwU7plc-U-MKmr2gnHCFUDkXf5VUfhP8KFoKWwaYD9wJdVLPZZoHTy9TeASbD7KHBYNUmjpequU7cTfC0ADW5HJSMUsYF1O9xKtsTznoY2c44QMIK6kWCoqZdX2juzASGQkf7mb32tWSHCpu_6sPXROJ4gJbXH2BveT05xNvndFOfFh82I0Z6CSEB_ipn3AQWziyQo_0DvetcZhOaE0oMpVmH41Xs5pjtoJABUUefbshSD1CmipYpxbzgQNWoVPVxqXGq4HXJ8nySnYv0WvrJ6oYYsN26cg9wSmw2G709rlTZs86YCFdDWPnx-t9fzrjO-Ck38dSPTh_vllMRBII9dZa935-4gtuIsrFdP1goGnbOS6NZUpMr9sdou-euQzRbjddFBvV87]--></g></svg>