<svg xmlns="http://www.w3.org/2000/svg" xmlns:xlink="http://www.w3.org/1999/xlink" contentStyleType="text/css" height="364px" preserveAspectRatio="none" style="width:456px;height:364px;background:#FFFFFF;" version="1.1" viewBox="0 0 456 364" width="456px" zoomAndPan="magnify"><defs/><g><rect fill="#FFFFFF" height="29.1328" style="stroke:#181818;stroke-width:1.0;" width="10" x="344.2842" y="67.4297"/><rect fill="none" height="200.4688" style="stroke:#000000;stroke-width:1.5;" width="239.8818" x="10" y="111.5625"/><line style="stroke:#181818;stroke-width:0.5;stroke-dasharray:5.0,5.0;" x1="99" x2="99" y1="36.2969" y2="329.0313"/><line style="stroke:#181818;stroke-width:0.5;stroke-dasharray:5.0,5.0;" x1="348.4575" x2="348.4575" y1="36.2969" y2="329.0313"/><rect fill="#E2E2F0" height="30.2969" rx="2.5" ry="2.5" style="stroke:#181818;stroke-width:0.5;" width="158.1836" x="20" y="5"/><text fill="#000000" font-family="sans-serif" font-size="14" lengthAdjust="spacing" textLength="144.1836" x="27" y="24.9951">Transporteren_order</text><rect fill="#E2E2F0" height="30.2969" rx="2.5" ry="2.5" style="stroke:#181818;stroke-width:0.5;" width="158.1836" x="20" y="328.0313"/><text fill="#000000" font-family="sans-serif" font-size="14" lengthAdjust="spacing" textLength="144.1836" x="27" y="348.0264">Transporteren_order</text><rect fill="#E2E2F0" height="30.2969" rx="2.5" ry="2.5" style="stroke:#181818;stroke-width:0.5;" width="201.6533" x="248.4575" y="5"/><text fill="#000000" font-family="sans-serif" font-size="14" lengthAdjust="spacing" textLength="187.6533" x="255.4575" y="24.9951">IsOrderKlaarVoorTransport</text><rect fill="#E2E2F0" height="30.2969" rx="2.5" ry="2.5" style="stroke:#181818;stroke-width:0.5;" width="201.6533" x="248.4575" y="328.0313"/><text fill="#000000" font-family="sans-serif" font-size="14" lengthAdjust="spacing" textLength="187.6533" x="255.4575" y="348.0264">IsOrderKlaarVoorTransport</text><rect fill="#FFFFFF" height="29.1328" style="stroke:#181818;stroke-width:1.0;" width="10" x="344.2842" y="67.4297"/><polygon fill="#181818" points="332.2842,63.4297,342.2842,67.4297,332.2842,71.4297,336.2842,67.4297" style="stroke:#181818;stroke-width:1.0;"/><line style="stroke:#181818;stroke-width:1.0;" x1="99.0918" x2="338.2842" y1="67.4297" y2="67.4297"/><text fill="#000000" font-family="sans-serif" font-size="13" lengthAdjust="spacing" textLength="226.1924" x="106.0918" y="62.3638">Functie IsOrderKlaarVoorTransport</text><polygon fill="#181818" points="110.0918,92.5625,100.0918,96.5625,110.0918,100.5625,106.0918,96.5625" style="stroke:#181818;stroke-width:1.0;"/><line style="stroke:#181818;stroke-width:1.0;stroke-dasharray:2.0,2.0;" x1="104.0918" x2="348.2842" y1="96.5625" y2="96.5625"/><text fill="#000000" font-family="sans-serif" font-size="13" lengthAdjust="spacing" textLength="127.2451" x="116.0918" y="91.4966">Return TRUE/FALSE</text><path d="M10,111.5625 L74.4429,111.5625 L74.4429,118.6953 L64.4429,128.6953 L10,128.6953 L10,111.5625 " fill="#EEEEEE" style="stroke:#000000;stroke-width:1.5;"/><rect fill="none" height="200.4688" style="stroke:#000000;stroke-width:1.5;" width="239.8818" x="10" y="111.5625"/><text fill="#000000" font-family="sans-serif" font-size="13" font-weight="bold" lengthAdjust="spacing" textLength="19.4429" x="25" y="124.6294">alt</text><text fill="#000000" font-family="sans-serif" font-size="11" font-weight="bold" lengthAdjust="spacing" textLength="98.9194" x="89.4429" y="123.7729">[Order is ready]</text><line style="stroke:#181818;stroke-width:1.0;" x1="99.0918" x2="141.0918" y1="149.8281" y2="149.8281"/><line style="stroke:#181818;stroke-width:1.0;" x1="141.0918" x2="141.0918" y1="149.8281" y2="162.8281"/><line style="stroke:#181818;stroke-width:1.0;" x1="100.0918" x2="141.0918" y1="162.8281" y2="162.8281"/><polygon fill="#181818" points="110.0918,158.8281,100.0918,162.8281,110.0918,166.8281,106.0918,162.8281" style="stroke:#181818;stroke-width:1.0;"/><text fill="#000000" font-family="sans-serif" font-size="13" lengthAdjust="spacing" textLength="99.5439" x="106.0918" y="144.7622">Inladen kratten</text><line style="stroke:#181818;stroke-width:1.0;" x1="99.0918" x2="141.0918" y1="191.9609" y2="191.9609"/><line style="stroke:#181818;stroke-width:1.0;" x1="141.0918" x2="141.0918" y1="191.9609" y2="204.9609"/><line style="stroke:#181818;stroke-width:1.0;" x1="100.0918" x2="141.0918" y1="204.9609" y2="204.9609"/><polygon fill="#181818" points="110.0918,200.9609,100.0918,204.9609,110.0918,208.9609,106.0918,204.9609" style="stroke:#181818;stroke-width:1.0;"/><text fill="#000000" font-family="sans-serif" font-size="13" lengthAdjust="spacing" textLength="95.9575" x="106.0918" y="186.895">Start transport</text><line style="stroke:#181818;stroke-width:1.0;" x1="99.0918" x2="141.0918" y1="234.0938" y2="234.0938"/><line style="stroke:#181818;stroke-width:1.0;" x1="141.0918" x2="141.0918" y1="234.0938" y2="247.0938"/><line style="stroke:#181818;stroke-width:1.0;" x1="100.0918" x2="141.0918" y1="247.0938" y2="247.0938"/><polygon fill="#181818" points="110.0918,243.0938,100.0918,247.0938,110.0918,251.0938,106.0918,247.0938" style="stroke:#181818;stroke-width:1.0;"/><text fill="#000000" font-family="sans-serif" font-size="13" lengthAdjust="spacing" textLength="131.79" x="106.0918" y="229.0278">Rijden naar garagist</text><line style="stroke:#000000;stroke-width:1.0;stroke-dasharray:2.0,2.0;" x1="10" x2="249.8818" y1="256.0938" y2="256.0938"/><text fill="#000000" font-family="sans-serif" font-size="11" font-weight="bold" lengthAdjust="spacing" textLength="123.3955" x="15" y="266.3042">[Order is not ready]</text><line style="stroke:#181818;stroke-width:1.0;" x1="99.0918" x2="141.0918" y1="291.0313" y2="291.0313"/><line style="stroke:#181818;stroke-width:1.0;" x1="141.0918" x2="141.0918" y1="291.0313" y2="304.0313"/><line style="stroke:#181818;stroke-width:1.0;" x1="100.0918" x2="141.0918" y1="304.0313" y2="304.0313"/><polygon fill="#181818" points="110.0918,300.0313,100.0918,304.0313,110.0918,308.0313,106.0918,304.0313" style="stroke:#181818;stroke-width:1.0;"/><text fill="#000000" font-family="sans-serif" font-size="13" lengthAdjust="spacing" textLength="93.7549" x="106.0918" y="285.9653">Stop transport</text><!--SRC=[dL4z2y903DtpAx9r4dS7mK6XA0YjkahmWfoMt96BWl_Uqq4xjCMQCU_bVP18Qlxa8udXJabI36giBCUWZXLY2o_JzhLRDqHw244_V82EKvpC-ozmXgkRdCppW2fb_4usHEatc6JxhbGphDXkAhYhzilfQh6fb-3u1okWnl0Dea-eJEu1cAUdUhTtAGqv5hmgcR6C5wWjFmJjasgqGEKlhm2I- -6PbCu-6N2J-DjDWltRhxOGM-bO700KHV44]--></g></svg>