<svg xmlns="http://www.w3.org/2000/svg" xmlns:xlink="http://www.w3.org/1999/xlink" contentStyleType="text/css" height="643px" preserveAspectRatio="none" style="width:421px;height:643px;background:#FFFFFF;" version="1.1" viewBox="0 0 421 643" width="421px" zoomAndPan="magnify"><defs/><g><path d="M19.5,7 L395.9222,7 A12.5,12.5 0 0 1 408.4222,19.5 L408.4222,33.2969 L7,33.2969 L7,19.5 A12.5,12.5 0 0 1 19.5,7 " fill="#F1F1F1" style="stroke:#F1F1F1;stroke-width:1.0;"/><rect fill="none" height="630.2969" rx="12.5" ry="12.5" style="stroke:#181818;stroke-width:0.5;" width="401.4222" x="7" y="7"/><line style="stroke:#181818;stroke-width:0.5;" x1="7" x2="408.4222" y1="33.2969" y2="33.2969"/><text fill="#000000" font-family="sans-serif" font-size="14" lengthAdjust="spacing" textLength="141.6338" x="136.8942" y="24.9951">Transporteren order</text><rect fill="#0000FF" height="40" rx="12.5" ry="12.5" style="stroke:#181818;stroke-width:0.5;" width="196.5801" x="69.58" y="45.2969"/><text fill="#000000" font-family="sans-serif" font-size="14" lengthAdjust="spacing" textLength="186.5801" x="74.58" y="70.1436">IsOrderklaarVoorTransport</text><rect fill="#F1F1F1" height="40" rx="12.5" ry="12.5" style="stroke:#181818;stroke-width:0.5;" width="117.3037" x="109.22" y="138.2969"/><text fill="#000000" font-family="sans-serif" font-size="14" lengthAdjust="spacing" textLength="107.3037" x="114.22" y="163.1436">Bus volgeladen</text><rect fill="#F1F1F1" height="40" rx="12.5" ry="12.5" style="stroke:#181818;stroke-width:0.5;" width="170.4053" x="82.67" y="215.2969"/><text fill="#000000" font-family="sans-serif" font-size="14" lengthAdjust="spacing" textLength="160.4053" x="87.67" y="240.1436">Beginnen aan de route</text><rect fill="#F1F1F1" height="40" rx="12.5" ry="12.5" style="stroke:#181818;stroke-width:0.5;" width="164.1367" x="85.8" y="308.2969"/><text fill="#000000" font-family="sans-serif" font-size="14" lengthAdjust="spacing" textLength="154.1367" x="90.8" y="333.1436">Aangekomen garagist</text><rect fill="#F1F1F1" height="40" rx="12.5" ry="12.5" style="stroke:#181818;stroke-width:0.5;" width="77.1494" x="129.29" y="401.2969"/><text fill="#000000" font-family="sans-serif" font-size="14" lengthAdjust="spacing" textLength="67.1494" x="134.29" y="426.1436">Afleveren</text><rect fill="#008000" height="40" rx="12.5" ry="12.5" style="stroke:#181818;stroke-width:0.5;" width="137.7363" x="19" y="494.2969"/><text fill="#000000" font-family="sans-serif" font-size="14" lengthAdjust="spacing" textLength="127.7363" x="24" y="519.1436">Afleveren voltooid</text><rect fill="#FF0000" height="40" rx="12.5" ry="12.5" style="stroke:#181818;stroke-width:0.5;" width="132.7803" x="208.48" y="494.2969"/><text fill="#000000" font-family="sans-serif" font-size="14" lengthAdjust="spacing" textLength="122.7803" x="213.48" y="519.1436">Afleveren mislukt</text><rect fill="#F1F1F1" height="40" rx="12.5" ry="12.5" style="stroke:#181818;stroke-width:0.5;" width="155.4756" x="105.13" y="587.2969"/><text fill="#000000" font-family="sans-serif" font-size="14" lengthAdjust="spacing" textLength="145.4756" x="110.13" y="612.1436">Terug naar vestiging</text><!--link IsOrderklaarVoorTransport to Krat_inladen--><g id="link_IsOrderklaarVoorTransport_Krat_inladen"><path d="M167.87,85.5969 C167.87,101.0369 167.87,116.5869 167.87,132.0269 " fill="none" id="IsOrderklaarVoorTransport-to-Krat_inladen" style="stroke:#181818;stroke-width:1.0;"/><polygon fill="#181818" points="167.87,138.0269,171.87,129.0269,167.87,133.0269,163.87,129.0269,167.87,138.0269" style="stroke:#181818;stroke-width:1.0;"/><text fill="#000000" font-family="sans-serif" font-size="13" lengthAdjust="spacing" textLength="110.5127" x="168.87" y="116.3638">Krat laden in bus</text></g><!--link Krat_inladen to Start_transporteren--><g id="link_Krat_inladen_Start_transporteren"><path d="M167.87,178.6069 C167.87,189.8069 167.87,197.8569 167.87,209.0469 " fill="none" id="Krat_inladen-to-Start_transporteren" style="stroke:#181818;stroke-width:1.0;"/><polygon fill="#181818" points="167.87,215.0469,171.87,206.0469,167.87,210.0469,163.87,206.0469,167.87,215.0469" style="stroke:#181818;stroke-width:1.0;"/></g><!--link Start_transporteren to Locatie--><g id="link_Start_transporteren_Locatie"><path d="M167.87,255.5969 C167.87,271.0369 167.87,286.5869 167.87,302.0269 " fill="none" id="Start_transporteren-to-Locatie" style="stroke:#181818;stroke-width:1.0;"/><polygon fill="#181818" points="167.87,308.0269,171.87,299.0269,167.87,303.0269,163.87,299.0269,167.87,308.0269" style="stroke:#181818;stroke-width:1.0;"/><text fill="#000000" font-family="sans-serif" font-size="13" lengthAdjust="spacing" textLength="131.79" x="168.87" y="286.3638">Rijden naar garagist</text></g><!--link Locatie to Afleveren--><g id="link_Locatie_Afleveren"><path d="M167.87,348.5969 C167.87,364.0369 167.87,379.5869 167.87,395.0269 " fill="none" id="Locatie-to-Afleveren" style="stroke:#181818;stroke-width:1.0;"/><polygon fill="#181818" points="167.87,401.0269,171.87,392.0269,167.87,396.0269,163.87,392.0269,167.87,401.0269" style="stroke:#181818;stroke-width:1.0;"/><text fill="#000000" font-family="sans-serif" font-size="13" lengthAdjust="spacing" textLength="84.0811" x="168.87" y="379.3638">Krat uitladen</text></g><!--link Afleveren to Afleveren_voltooid--><g id="link_Afleveren_Afleveren_voltooid"><path d="M128.91,424.5069 C104.47,428.1469 74.7,437.2069 58.87,459.2969 C51.12,470.1069 53.9868,478.6461 62.9068,489.2461 " fill="none" id="Afleveren-to-Afleveren_voltooid" style="stroke:#181818;stroke-width:1.0;"/><polygon fill="#181818" points="66.77,493.8369,64.0357,484.3752,63.5507,490.0112,57.9146,489.5261,66.77,493.8369" style="stroke:#181818;stroke-width:1.0;"/><text fill="#000000" font-family="sans-serif" font-size="13" lengthAdjust="spacing" textLength="196.5742" x="59.87" y="472.3638">Artikelen en pakbon afleveren</text></g><!--link Afleveren to Afleveren_mislukt--><g id="link_Afleveren_Afleveren_mislukt"><path d="M206.75,430.6369 C224.13,436.1569 243.65,445.0869 256.87,459.2969 C265.69,468.7769 268.9963,476.8168 271.2963,488.1468 " fill="none" id="Afleveren-to-Afleveren_mislukt" style="stroke:#181818;stroke-width:1.0;"/><polygon fill="#181818" points="272.49,494.0269,274.6196,484.411,271.4953,489.1268,266.7795,486.0025,272.49,494.0269" style="stroke:#181818;stroke-width:1.0;"/><text fill="#000000" font-family="sans-serif" font-size="13" lengthAdjust="spacing" textLength="130.5522" x="267.87" y="472.3638">Order retour nemen</text></g><!--link Afleveren_voltooid to Retour_vestiging--><g id="link_Afleveren_voltooid_Retour_vestiging"><path d="M89.24,534.6569 C90.94,545.8869 94.68,559.6569 102.87,569.2969 C108.91,576.4069 111.4207,579.2424 119.6507,583.9824 " fill="none" id="Afleveren_voltooid-to-Retour_vestiging" style="stroke:#181818;stroke-width:1.0;"/><polygon fill="#181818" points="124.85,586.9769,119.0474,579.0189,120.5172,584.4815,115.0547,585.9513,124.85,586.9769" style="stroke:#181818;stroke-width:1.0;"/><text fill="#000000" font-family="sans-serif" font-size="13" lengthAdjust="spacing" textLength="135.0845" x="103.87" y="565.3638">Terug naar vestiging</text></g><!--link Afleveren_mislukt to Retour_vestiging--><g id="link_Afleveren_mislukt_Retour_vestiging"><path d="M266.74,534.6169 C261.4,545.6869 253.61,559.3169 243.87,569.2969 C237.38,575.9469 234.5235,578.6581 226.5635,583.7181 " fill="none" id="Afleveren_mislukt-to-Retour_vestiging" style="stroke:#181818;stroke-width:1.0;"/><polygon fill="#181818" points="221.5,586.9369,231.2412,585.4844,225.7196,584.2546,226.9495,578.733,221.5,586.9369" style="stroke:#181818;stroke-width:1.0;"/><text fill="#000000" font-family="sans-serif" font-size="13" lengthAdjust="spacing" textLength="135.0845" x="256.87" y="565.3638">Terug naar vestiging</text></g><!--SRC=[bLFBJiCm4BpdArRjeQV-00UaSaCW8K75DNARnPYaThHULqA8VsUpQT8u2aX4kTYUnsR6UNSL0fvQ_eGAuv5SooxuedXXmmXxCZwsWHW9VHceGeAleW1vxkDJjwmRO-Wr11gXiDtUmWCPBfrlJ8KURdG9_S9vEAIe4XceOu6u4fSyTGNe_PQEEivZE1fsA2RFxgCJyZ8GM4F6kiXA7I0TVFVMu5d9bwcIOnsWTxaUP-3o71eEmLN2sX6x6Xk1oDkQ-X0yc07ufyZ9nIRLB1eQ7H1oI0GUJvrzJhqwTXhFYYpF6DbPvwr8x96IxJzst9v937x_KL29gEN_tl3wq2IS85TtAO8CR56ZN869URaP5iN8owOnNkuSK4YCIbceU4hS6M-n3XBMMA_IBlLcqB618KP5BgIxjeGpcv5xoMz67L9T4rPJtbASIfr7NnJVnS39hhF-NqfP-E_aWcmscny0]--></g></svg>