<svg xmlns="http://www.w3.org/2000/svg" xmlns:xlink="http://www.w3.org/1999/xlink" contentStyleType="text/css" height="659px" preserveAspectRatio="none" style="width:1018px;height:659px;background:#FFFFFF;" version="1.1" viewBox="0 0 1018 659" width="1018px" zoomAndPan="magnify"><defs/><g><path d="M19.5,7 L992.7619,7 A12.5,12.5 0 0 1 1005.2619,19.5 L1005.2619,33.2969 L7,33.2969 L7,19.5 A12.5,12.5 0 0 1 19.5,7 " fill="#F1F1F1" style="stroke:#F1F1F1;stroke-width:1.0;"/><rect fill="none" height="646.2969" rx="12.5" ry="12.5" style="stroke:#181818;stroke-width:0.5;" width="998.2619" x="7" y="7"/><line style="stroke:#181818;stroke-width:0.5;" x1="7" x2="1005.2619" y1="33.2969" y2="33.2969"/><text fill="#000000" font-family="sans-serif" font-size="14" lengthAdjust="spacing" textLength="186.3955" x="412.9332" y="24.9951">Orderverwerking magazijn</text><rect fill="#F1F1F1" height="40" rx="12.5" ry="12.5" style="stroke:#181818;stroke-width:0.5;" width="103.9395" x="658.83" y="45.2969"/><text fill="#000000" font-family="sans-serif" font-size="14" lengthAdjust="spacing" textLength="93.9395" x="663.83" y="70.1436">Nieuwe order</text><rect fill="#F1F1F1" height="40" rx="12.5" ry="12.5" style="stroke:#181818;stroke-width:0.5;" width="160.1924" x="630.7" y="138.2969"/><text fill="#000000" font-family="sans-serif" font-size="14" lengthAdjust="spacing" textLength="150.1924" x="635.7" y="163.1436">Controleren voorraad</text><rect fill="#F1F1F1" height="40" rx="12.5" ry="12.5" style="stroke:#181818;stroke-width:0.5;" width="221.5244" x="510.04" y="231.2969"/><text fill="#000000" font-family="sans-serif" font-size="14" lengthAdjust="spacing" textLength="211.5244" x="515.04" y="256.1436">Order naar magazijn gestuurd</text><rect fill="#FF0000" height="40" rx="12.5" ry="12.5" style="stroke:#181818;stroke-width:0.5;" width="100.4189" x="594.59" y="603.2969"/><text fill="#000000" font-family="sans-serif" font-size="14" lengthAdjust="spacing" textLength="90.4189" x="599.59" y="628.1436">Geannuleerd</text><rect fill="#F1F1F1" height="40" rx="12.5" ry="12.5" style="stroke:#181818;stroke-width:0.5;" width="212.3027" x="473.65" y="324.2969"/><text fill="#000000" font-family="sans-serif" font-size="14" lengthAdjust="spacing" textLength="202.3027" x="478.65" y="349.1436">Orderverzamellijst uitgeprint</text><rect fill="#F1F1F1" height="40" rx="12.5" ry="12.5" style="stroke:#181818;stroke-width:0.5;" width="233.7676" x="420.92" y="417.2969"/><text fill="#000000" font-family="sans-serif" font-size="14" lengthAdjust="spacing" textLength="223.7676" x="425.92" y="442.1436">Verzameling artikelen compleet</text><rect fill="#F1F1F1" height="40" rx="12.5" ry="12.5" style="stroke:#181818;stroke-width:0.5;" width="249.8525" x="290.87" y="510.2969"/><text fill="#000000" font-family="sans-serif" font-size="14" lengthAdjust="spacing" textLength="239.8525" x="295.87" y="535.1436">Controleren verzameling artikelen</text><rect fill="#008000" height="40" rx="12.5" ry="12.5" style="stroke:#181818;stroke-width:0.5;" width="285.5977" x="19" y="603.2969"/><text fill="#000000" font-family="sans-serif" font-size="14" lengthAdjust="spacing" textLength="275.5977" x="24" y="628.1436">Order verwerking in magazijn afgerond</text><!--link Nieuwe_order to Voorraad_controle--><g id="link_Nieuwe_order_Voorraad_controle"><path d="M710.8,85.5969 C710.8,101.0369 710.8,116.5869 710.8,132.0269 " fill="none" id="Nieuwe_order-to-Voorraad_controle" style="stroke:#181818;stroke-width:1.0;"/><polygon fill="#181818" points="710.8,138.0269,714.8,129.0269,710.8,133.0269,706.8,129.0269,710.8,138.0269" style="stroke:#181818;stroke-width:1.0;"/><text fill="#000000" font-family="sans-serif" font-size="13" lengthAdjust="spacing" textLength="229.5757" x="711.8" y="116.3638">Nieuwe bestelling van een garagist</text></g><!--link Voorraad_controle to Order_magazijn--><g id="link_Voorraad_controle_Order_magazijn"><path d="M691.71,178.5969 C676.44,194.0369 659.3377,211.3194 644.0777,226.7594 " fill="none" id="Voorraad_controle-to-Order_magazijn" style="stroke:#181818;stroke-width:1.0;"/><polygon fill="#181818" points="639.86,231.0269,649.0315,227.4375,643.3747,227.4707,643.3416,221.8139,639.86,231.0269" style="stroke:#181818;stroke-width:1.0;"/><text fill="#000000" font-family="sans-serif" font-size="13" lengthAdjust="spacing" textLength="81.0913" x="674.8" y="209.3638">Op voorraad</text></g><!--link Voorraad_controle to Geannuleerd--><g id="link_Voorraad_controle_Geannuleerd"><path d="M742.96,178.6569 C749.54,183.7469 755.92,189.6969 760.8,196.2969 C775.91,216.7669 779.8,224.8569 779.8,250.2969 C779.8,250.2969 779.8,250.2969 779.8,531.2969 C779.8,556.0869 782.95,567.3869 765.8,585.2969 C747.49,604.4169 725.51,612.6359 701.12,617.1459 " fill="none" id="Voorraad_controle-to-Geannuleerd" style="stroke:#181818;stroke-width:1.0;"/><polygon fill="#181818" points="695.22,618.2369,704.7973,620.5337,700.1367,617.3277,703.3427,612.6671,695.22,618.2369" style="stroke:#181818;stroke-width:1.0;"/><text fill="#000000" font-family="sans-serif" font-size="13" lengthAdjust="spacing" textLength="214.4619" x="780.8" y="395.3638">Niet op voorraad (administratief)</text></g><!--link Order_magazijn to Order_uitgeprint--><g id="link_Order_magazijn_Order_uitgeprint"><path d="M610.42,271.7269 C607.53,277.3469 604.45,283.5269 601.8,289.2969 C596.6,300.6069 593.5232,307.936 589.4332,318.296 " fill="none" id="Order_magazijn-to-Order_uitgeprint" style="stroke:#181818;stroke-width:1.0;"/><polygon fill="#181818" points="587.23,323.8769,594.2554,316.9745,589.066,319.2262,586.8143,314.0368,587.23,323.8769" style="stroke:#181818;stroke-width:1.0;"/><text fill="#000000" font-family="sans-serif" font-size="13" lengthAdjust="spacing" textLength="162.5889" x="602.8" y="302.3638">Print "Orderverzamelijst"</text></g><!--link Order_uitgeprint to Order_verzameld--><g id="link_Order_uitgeprint_Order_verzameld"><path d="M570.89,364.5969 C563.76,380.0369 556.3355,396.1396 549.2055,411.5796 " fill="none" id="Order_uitgeprint-to-Order_verzameld" style="stroke:#181818;stroke-width:1.0;"/><polygon fill="#181818" points="546.69,417.0269,554.0947,410.533,548.7862,412.4875,546.8317,407.179,546.69,417.0269" style="stroke:#181818;stroke-width:1.0;"/><text fill="#000000" font-family="sans-serif" font-size="13" lengthAdjust="spacing" textLength="183.3584" x="562.8" y="395.3638">Artikelen worden verzameld</text></g><!--link Order_verzameld to Order_controle--><g id="link_Order_verzameld_Order_controle"><path d="M534,457.7469 C530.86,469.1469 525.33,483.0769 515.8,492.2969 C508.42,499.4469 504.91,502.5505 495.52,507.2305 " fill="none" id="Order_verzameld-to-Order_controle" style="stroke:#181818;stroke-width:1.0;"/><polygon fill="#181818" points="490.15,509.9069,499.9893,509.4722,494.625,507.6765,496.4207,502.3123,490.15,509.9069" style="stroke:#181818;stroke-width:1.0;"/><text fill="#000000" font-family="sans-serif" font-size="13" lengthAdjust="spacing" textLength="225.0054" x="527.8" y="488.3638">Controle t.o.v. "Orderverzamelijst"</text></g><!--link Order_controle to Order_voltooid--><g id="link_Order_controle_Order_voltooid"><path d="M290.61,534.1969 C234.33,538.4069 176.55,547.8169 158.8,568.2969 C150.74,577.5969 150.2528,585.699 153.1228,597.079 " fill="none" id="Order_controle-to-Order_voltooid" style="stroke:#181818;stroke-width:1.0;"/><polygon fill="#181818" points="154.59,602.8969,156.2677,593.192,153.3673,598.0487,148.5106,595.1483,154.59,602.8969" style="stroke:#181818;stroke-width:1.0;"/><text fill="#000000" font-family="sans-serif" font-size="13" lengthAdjust="spacing" textLength="324.8667" x="159.8" y="581.3638">Goedgekeurd, Artikelen en pakbon in krat pakken</text></g><!--link Order_controle to Order_verzameld--><g id="link_Order_controle_Order_verzameld"><path d="M336.42,509.8469 C317.22,501.3869 305.38,489.9769 317.8,475.2969 C331.81,458.7369 369.7077,450.2586 414.6177,445.1986 " fill="none" id="Order_controle-to-Order_verzameld" style="stroke:#181818;stroke-width:1.0;"/><polygon fill="#181818" points="420.58,444.5269,411.1887,441.5597,415.6114,445.0867,412.0844,449.5094,420.58,444.5269" style="stroke:#181818;stroke-width:1.0;"/><text fill="#000000" font-family="sans-serif" font-size="13" lengthAdjust="spacing" textLength="192.8608" x="318.8" y="488.3638">Pakfout, opnieuw verzamelen</text></g><!--link Order_controle to Geannuleerd--><g id="link_Order_controle_Geannuleerd"><path d="M457,550.6669 C467.56,556.0369 478.76,562.1069 488.8,568.2969 C499.62,574.9669 500.37,579.7269 511.8,585.2969 C537.75,597.9569 562.895,605.542 588.435,611.462 " fill="none" id="Order_controle-to-Geannuleerd" style="stroke:#181818;stroke-width:1.0;"/><polygon fill="#181818" points="594.28,612.8169,586.4157,606.8879,589.4091,611.6878,584.6092,614.6813,594.28,612.8169" style="stroke:#181818;stroke-width:1.0;"/><text fill="#000000" font-family="sans-serif" font-size="13" lengthAdjust="spacing" textLength="252.1226" x="512.8" y="581.3638">Niet op voorraad (werkelijke voorraad)</text></g><!--SRC=[XLJ1JiCm3BttAwnn64ZRFe034kB03JXndSpYXT3MgToq4qFyEqbecumLg2grJVsUxUUNl1f5G7NZta5HknFJE6EvQ1qwWaTH93t9WQGqhBSrQZoQDuQF0lprOAWxqDQ6A5YlR-3PMX54jTrPTc8hWkiX25weTLHLdWLwP21Yq2YeJUiYrpaq4CO2KjfhU6oW7oB_WDqJCdSLaQZl2XpO18HBLBLXdrdG6TfV5P7gHwwKlZDEKoE6dITxYi_5gCmHQwhCM-iM6KS6I2nZSAZeLfmfgV8Q789u3DFFZ2K14accwztuwZPsqszcIyhOPcJjRUMiDQ6WUqjAKqcTg5LMdRyRB5yiWs4elLhXioJ-XpVhz0dBlUtSoklFmGXJfx-J_3UyOCRGO4dJuZ31RzCk1iT5Mou0snEVve6ZX18cC515m9chSbGi6HXHO3ABzkxkl7WHVMgaC-YeG9mH9AzasBIOev_7sVezXDECThPkl5Wv_DHDSytECMK4lxUT3eDWYQb_t6iIotd_axikj13bCkG3lX1IK7mMFmGQSum94k_CQLGKo-No2m00]--></g></svg>