<svg xmlns="http://www.w3.org/2000/svg" xmlns:xlink="http://www.w3.org/1999/xlink" contentStyleType="text/css" height="1035px" preserveAspectRatio="none" style="width:1101px;height:1035px;background:#FFFFFF;" version="1.1" viewBox="0 0 1101 1035" width="1101px" zoomAndPan="magnify"><defs/><g><ellipse cx="374.21" cy="16" fill="#222222" rx="10" ry="10" style="stroke:#222222;stroke-width:1.0;"/><rect fill="#F1F1F1" height="40" rx="12.5" ry="12.5" style="stroke:#181818;stroke-width:0.5;" width="103.9395" x="322.24" y="87"/><text fill="#000000" font-family="sans-serif" font-size="14" lengthAdjust="spacing" textLength="93.9395" x="327.24" y="111.8467">Nieuwe order</text><rect fill="#F1F1F1" height="40" rx="12.5" ry="12.5" style="stroke:#181818;stroke-width:0.5;" width="160.1924" x="294.11" y="204"/><text fill="#000000" font-family="sans-serif" font-size="14" lengthAdjust="spacing" textLength="150.1924" x="299.11" y="228.8467">Controleren voorraad</text><rect fill="#F1F1F1" height="40" rx="12.5" ry="12.5" style="stroke:#181818;stroke-width:0.5;" width="221.5244" x="263.45" y="321"/><text fill="#000000" font-family="sans-serif" font-size="14" lengthAdjust="spacing" textLength="211.5244" x="268.45" y="345.8467">Order naar magazijn gestuurd</text><rect fill="#FF0000" height="40" rx="12.5" ry="12.5" style="stroke:#181818;stroke-width:0.5;" width="100.4189" x="7" y="789"/><text fill="#000000" font-family="sans-serif" font-size="14" lengthAdjust="spacing" textLength="90.4189" x="12" y="813.8467">Geannuleerd</text><rect fill="#FFA500" height="40" rx="12.5" ry="12.5" style="stroke:#181818;stroke-width:0.5;" width="81.5654" x="698.43" y="789"/><text fill="#000000" font-family="sans-serif" font-size="14" lengthAdjust="spacing" textLength="71.5654" x="703.43" y="813.8467">Backorder</text><rect fill="#F1F1F1" height="40" rx="12.5" ry="12.5" style="stroke:#181818;stroke-width:0.5;" width="212.3027" x="268.06" y="438"/><text fill="#000000" font-family="sans-serif" font-size="14" lengthAdjust="spacing" textLength="202.3027" x="273.06" y="462.8467">Orderverzamellijst uitgeprint</text><rect fill="#F1F1F1" height="40" rx="12.5" ry="12.5" style="stroke:#181818;stroke-width:0.5;" width="233.7676" x="257.33" y="555"/><text fill="#000000" font-family="sans-serif" font-size="14" lengthAdjust="spacing" textLength="223.7676" x="262.33" y="579.8467">Verzameling artikelen compleet</text><rect fill="#F1F1F1" height="40" rx="12.5" ry="12.5" style="stroke:#181818;stroke-width:0.5;" width="249.8525" x="255.28" y="672"/><text fill="#000000" font-family="sans-serif" font-size="14" lengthAdjust="spacing" textLength="239.8525" x="260.28" y="696.8467">Controleren verzameling artikelen</text><rect fill="#F1F1F1" height="40" rx="12.5" ry="12.5" style="stroke:#181818;stroke-width:0.5;" width="131.9258" x="314.25" y="789"/><text fill="#000000" font-family="sans-serif" font-size="14" lengthAdjust="spacing" textLength="121.9258" x="319.25" y="813.8467">Order bevestigen</text><rect fill="#F1F1F1" height="40" rx="12.5" ry="12.5" style="stroke:#181818;stroke-width:0.5;" width="285.5977" x="237.41" y="906"/><text fill="#000000" font-family="sans-serif" font-size="14" lengthAdjust="spacing" textLength="275.5977" x="242.41" y="930.8467">Order verwerking in magazijn afgerond</text><ellipse cx="380.21" cy="1018" fill="none" rx="11" ry="11" style="stroke:#222222;stroke-width:1.0;"/><ellipse cx="380.21" cy="1018" fill="#222222" rx="6" ry="6" style="stroke:#222222;stroke-width:1.0;"/><!--link *start* to Nieuwe_order--><g id="link_*start*_Nieuwe_order"><path d="M374.21,26.19 C374.21,40.4 374.21,62.02 374.21,80.74 " fill="none" id="*start*-to-Nieuwe_order" style="stroke:#181818;stroke-width:1.0;"/><polygon fill="#181818" points="374.21,86.74,378.21,77.74,374.21,81.74,370.21,77.74,374.21,86.74" style="stroke:#181818;stroke-width:1.0;"/></g><!--link Nieuwe_order to Voorraad_controle--><g id="link_Nieuwe_order_Voorraad_controle"><path d="M374.21,127.25 C374.21,148.48 374.21,176.44 374.21,197.69 " fill="none" id="Nieuwe_order-to-Voorraad_controle" style="stroke:#181818;stroke-width:1.0;"/><polygon fill="#181818" points="374.21,203.69,378.21,194.69,374.21,198.69,370.21,194.69,374.21,203.69" style="stroke:#181818;stroke-width:1.0;"/><text fill="#000000" font-family="sans-serif" font-size="13" lengthAdjust="spacing" textLength="229.5757" x="375.21" y="170.0669">Nieuwe bestelling van een garagist</text></g><!--link Voorraad_controle to Order_magazijn--><g id="link_Voorraad_controle_Order_magazijn"><path d="M374.21,244.25 C374.21,265.48 374.21,293.44 374.21,314.69 " fill="none" id="Voorraad_controle-to-Order_magazijn" style="stroke:#181818;stroke-width:1.0;"/><polygon fill="#181818" points="374.21,320.69,378.21,311.69,374.21,315.69,370.21,311.69,374.21,320.69" style="stroke:#181818;stroke-width:1.0;"/><text fill="#000000" font-family="sans-serif" font-size="13" lengthAdjust="spacing" textLength="81.0913" x="375.21" y="287.0669">Op voorraad</text></g><!--link Voorraad_controle to Geannuleerd--><g id="link_Voorraad_controle_Geannuleerd"><path d="M293.96,235.35 C191.75,250.83 28.21,284.3 28.21,340 C28.21,340 28.21,340 28.21,693 C28.21,727.59 38.5625,760.7037 47.1525,783.2337 " fill="none" id="Voorraad_controle-to-Geannuleerd" style="stroke:#181818;stroke-width:1.0;"/><polygon fill="#181818" points="49.29,788.84,49.8213,779.0055,47.5087,784.1681,42.3462,781.8555,49.29,788.84" style="stroke:#181818;stroke-width:1.0;"/><text fill="#000000" font-family="sans-serif" font-size="13" lengthAdjust="spacing" textLength="214.4619" x="29.21" y="521.0669">Niet op voorraad (administratief)</text></g><!--link Voorraad_controle to Backorder--><g id="link_Voorraad_controle_Backorder"><path d="M454.63,226.88 C596.92,232.4 878.21,254.18 878.21,340 C878.21,340 878.21,340 878.21,693 C878.21,723.92 877.24,736.33 856.21,759 C836.29,780.47 811.2714,791.2551 786.2714,798.1951 " fill="none" id="Voorraad_controle-to-Backorder" style="stroke:#181818;stroke-width:1.0;"/><polygon fill="#181818" points="780.49,799.8,790.232,801.2469,785.3078,798.4626,788.0921,793.5384,780.49,799.8" style="stroke:#181818;stroke-width:1.0;"/><text fill="#000000" font-family="sans-serif" font-size="13" lengthAdjust="spacing" textLength="214.4619" x="879.21" y="521.0669">Niet op voorraad (administratief)</text></g><!--link Order_magazijn to Order_uitgeprint--><g id="link_Order_magazijn_Order_uitgeprint"><path d="M374.21,361.25 C374.21,382.48 374.21,410.44 374.21,431.69 " fill="none" id="Order_magazijn-to-Order_uitgeprint" style="stroke:#181818;stroke-width:1.0;"/><polygon fill="#181818" points="374.21,437.69,378.21,428.69,374.21,432.69,370.21,428.69,374.21,437.69" style="stroke:#181818;stroke-width:1.0;"/><text fill="#000000" font-family="sans-serif" font-size="13" lengthAdjust="spacing" textLength="162.5889" x="375.21" y="404.0669">Print "Orderverzamelijst"</text></g><!--link Order_uitgeprint to Order_verzameld--><g id="link_Order_uitgeprint_Order_verzameld"><path d="M374.21,478.25 C374.21,499.48 374.21,527.44 374.21,548.69 " fill="none" id="Order_uitgeprint-to-Order_verzameld" style="stroke:#181818;stroke-width:1.0;"/><polygon fill="#181818" points="374.21,554.69,378.21,545.69,374.21,549.69,370.21,545.69,374.21,554.69" style="stroke:#181818;stroke-width:1.0;"/><text fill="#000000" font-family="sans-serif" font-size="13" lengthAdjust="spacing" textLength="183.3584" x="375.21" y="521.0669">Artikelen worden verzameld</text></g><!--link Order_verzameld to Order_controle--><g id="link_Order_verzameld_Order_controle"><path d="M316.03,595.5 C292.92,606.68 274.33,622.4 286.21,642 C294.03,654.9 301.2068,661.7261 314.5268,668.8961 " fill="none" id="Order_verzameld-to-Order_controle" style="stroke:#181818;stroke-width:1.0;"/><polygon fill="#181818" points="319.81,671.74,313.7811,663.952,315.4073,669.3701,309.9893,670.9963,319.81,671.74" style="stroke:#181818;stroke-width:1.0;"/><text fill="#000000" font-family="sans-serif" font-size="13" lengthAdjust="spacing" textLength="225.0054" x="287.21" y="638.0669">Controle t.o.v. "Orderverzamelijst"</text></g><!--link Order_controle to Order_verzameld--><g id="link_Order_controle_Order_verzameld"><path d="M487.11,671.57 C514.66,661.55 532.71,646.7 517.21,625 C507.98,612.08 500.5078,605.1906 486.2578,598.1406 " fill="none" id="Order_controle-to-Order_verzameld" style="stroke:#181818;stroke-width:1.0;"/><polygon fill="#181818" points="480.88,595.48,487.173,603.0561,485.3615,597.6972,490.7205,595.8857,480.88,595.48" style="stroke:#181818;stroke-width:1.0;"/><text fill="#000000" font-family="sans-serif" font-size="13" lengthAdjust="spacing" textLength="192.8608" x="523.21" y="638.0669">Pakfout, opnieuw verzamelen</text></g><!--link Order_controle to Order_voltooid--><g id="link_Order_controle_Order_voltooid"><path d="M378.77,712.07 C378.16,721.13 377.51,732.12 377.21,742 C376.73,757.71 377.1925,769.5152 378.1325,782.6752 " fill="none" id="Order_controle-to-Order_voltooid" style="stroke:#181818;stroke-width:1.0;"/><polygon fill="#181818" points="378.56,788.66,381.9086,779.3979,378.2038,783.6727,373.9289,779.9679,378.56,788.66" style="stroke:#181818;stroke-width:1.0;"/><text fill="#000000" font-family="sans-serif" font-size="13" lengthAdjust="spacing" textLength="179.0229" x="378.21" y="755.0669">Goedgekeurd, print pakbon</text></g><!--link Order_controle to Geannuleerd--><g id="link_Order_controle_Geannuleerd"><path d="M255.06,698.63 C208.43,705.08 156.58,717.72 114.21,742 C94.77,753.14 82.0652,768.4591 72.0152,783.6191 " fill="none" id="Order_controle-to-Geannuleerd" style="stroke:#181818;stroke-width:1.0;"/><polygon fill="#181818" points="68.7,788.62,77.0068,783.3288,71.4627,784.4526,70.3389,778.9085,68.7,788.62" style="stroke:#181818;stroke-width:1.0;"/><text fill="#000000" font-family="sans-serif" font-size="13" lengthAdjust="spacing" textLength="252.1226" x="115.21" y="755.0669">Niet op voorraad (werkelijke voorraad)</text></g><!--link Order_controle to Backorder--><g id="link_Order_controle_Backorder"><path d="M465,712.48 C495.97,720.47 531.03,730.55 562.21,742 C578.82,748.1 581.83,752.31 598.21,759 C631.32,772.52 663.9975,783.844 692.3575,793.124 " fill="none" id="Order_controle-to-Backorder" style="stroke:#181818;stroke-width:1.0;"/><polygon fill="#181818" points="698.06,794.99,690.7503,788.3894,693.3079,793.435,688.2623,795.9927,698.06,794.99" style="stroke:#181818;stroke-width:1.0;"/><text fill="#000000" font-family="sans-serif" font-size="13" lengthAdjust="spacing" textLength="252.1226" x="599.21" y="755.0669">Niet op voorraad (werkelijke voorraad)</text></g><!--link Order_voltooid to Order_ingepakt--><g id="link_Order_voltooid_Order_ingepakt"><path d="M380.21,829.25 C380.21,850.48 380.21,878.44 380.21,899.69 " fill="none" id="Order_voltooid-to-Order_ingepakt" style="stroke:#181818;stroke-width:1.0;"/><polygon fill="#181818" points="380.21,905.69,384.21,896.69,380.21,900.69,376.21,896.69,380.21,905.69" style="stroke:#181818;stroke-width:1.0;"/><text fill="#000000" font-family="sans-serif" font-size="13" lengthAdjust="spacing" textLength="228.7124" x="381.21" y="872.0669">Artikelen en pakbon in krat pakken</text></g><!--link Order_ingepakt to *end*--><g id="link_Order_ingepakt_*end*"><path d="M380.21,946.09 C380.21,964.66 380.21,986.17 380.21,1000.87 " fill="none" id="Order_ingepakt-to-*end*" style="stroke:#181818;stroke-width:1.0;"/><polygon fill="#181818" points="380.21,1006.87,384.21,997.87,380.21,1001.87,376.21,997.87,380.21,1006.87" style="stroke:#181818;stroke-width:1.0;"/></g><!--SRC=[ZLH1Rjim4Bpp5Gldu3P8_80U2hGzvDRab4iG66jphJAKI655oKXUdwKiYf8jjmK4M2PtXZixGxtSliBz_NVuRQWzqjQp9bP_Z2QWgWxleAdPiwc3yKwfQL6FUlQU6L5lzzu5zYN1ju49TjG4AalZ2kZG0P630XaBqmHr2OjaZv5sMs617-RD2TDZ3TrGUGNoGEXSMnAnFfqSm6SGV45T6ISdCWP3XwzNM7xYtfuq_G-7EkipjzwQK53DnWKXUkf_L_rEH_o15PNchGahTL6S6L9XLFE3Wx5KojoEiJa7uwOwByu44nz-fTUmyPjkizYAEaDDEl5byDx4HXuywO8ijQpluDHnZNOdWRYEdkXuGdlmRRYJgReOZL47BHByoz8ZiOtjMneNnPCbfh_Rkinp9ZuhaXoJg0umSqQUqoZ0EB2IaFZNoYeagX4NgLvkNvLg0WQQoRnXqZ2ivwPlFAE0LKAiXelLxwu0c_cT7OgIwnm3C-ZgYo-Ydn1zd-0G6SPC5t9vM_6xHyxpFeCbA_iuGOxq19SN4_8vHL0-3JYESk-hMiOnXUR0BubROfc0bsNkg1DfffYL9hldfN90p4Za5tF7qU2X8FPkEfhaiLYbrklr9m00]--></g></svg>