<svg xmlns="http://www.w3.org/2000/svg" xmlns:xlink="http://www.w3.org/1999/xlink" contentStyleType="text/css" height="872px" preserveAspectRatio="none" style="width:871px;height:872px;background:#FFFFFF;" version="1.1" viewBox="0 0 871 872" width="871px" zoomAndPan="magnify"><defs/><g><rect fill="#F1F1F1" height="40" rx="12.5" ry="12.5" style="stroke:#181818;stroke-width:0.5;" width="103.9395" x="513.83" y="7"/><text fill="#000000" font-family="sans-serif" font-size="14" lengthAdjust="spacing" textLength="93.9395" x="518.83" y="31.8467">Nieuwe order</text><rect fill="#F1F1F1" height="40" rx="12.5" ry="12.5" style="stroke:#181818;stroke-width:0.5;" width="160.1924" x="485.7" y="124"/><text fill="#000000" font-family="sans-serif" font-size="14" lengthAdjust="spacing" textLength="150.1924" x="490.7" y="148.8467">Controleren voorraad</text><rect fill="#F1F1F1" height="40" rx="12.5" ry="12.5" style="stroke:#181818;stroke-width:0.5;" width="221.5244" x="362.04" y="241"/><text fill="#000000" font-family="sans-serif" font-size="14" lengthAdjust="spacing" textLength="211.5244" x="367.04" y="265.8467">Order naar magazijn gestuurd</text><rect fill="#FF0000" height="40" rx="12.5" ry="12.5" style="stroke:#181818;stroke-width:0.5;" width="100.4189" x="458.59" y="709"/><text fill="#000000" font-family="sans-serif" font-size="14" lengthAdjust="spacing" textLength="90.4189" x="463.59" y="733.8467">Geannuleerd</text><rect fill="#F1F1F1" height="40" rx="12.5" ry="12.5" style="stroke:#181818;stroke-width:0.5;" width="212.3027" x="326.65" y="358"/><text fill="#000000" font-family="sans-serif" font-size="14" lengthAdjust="spacing" textLength="202.3027" x="331.65" y="382.8467">Orderverzamellijst uitgeprint</text><rect fill="#F1F1F1" height="40" rx="12.5" ry="12.5" style="stroke:#181818;stroke-width:0.5;" width="233.7676" x="280.92" y="475"/><text fill="#000000" font-family="sans-serif" font-size="14" lengthAdjust="spacing" textLength="223.7676" x="285.92" y="499.8467">Verzameling artikelen compleet</text><rect fill="#F1F1F1" height="40" rx="12.5" ry="12.5" style="stroke:#181818;stroke-width:0.5;" width="249.8525" x="141.87" y="592"/><text fill="#000000" font-family="sans-serif" font-size="14" lengthAdjust="spacing" textLength="239.8525" x="146.87" y="616.8467">Controleren verzameling artikelen</text><rect fill="#F1F1F1" height="40" rx="12.5" ry="12.5" style="stroke:#181818;stroke-width:0.5;" width="131.9258" x="83.84" y="709"/><text fill="#000000" font-family="sans-serif" font-size="14" lengthAdjust="spacing" textLength="121.9258" x="88.84" y="733.8467">Order bevestigen</text><rect fill="#008000" height="40" rx="12.5" ry="12.5" style="stroke:#181818;stroke-width:0.5;" width="285.5977" x="7" y="826"/><text fill="#000000" font-family="sans-serif" font-size="14" lengthAdjust="spacing" textLength="275.5977" x="12" y="850.8467">Order verwerking in magazijn afgerond</text><!--link Nieuwe_order to Voorraad_controle--><g id="link_Nieuwe_order_Voorraad_controle"><path d="M565.8,47.25 C565.8,68.48 565.8,96.44 565.8,117.69 " fill="none" id="Nieuwe_order-to-Voorraad_controle" style="stroke:#181818;stroke-width:1.0;"/><polygon fill="#181818" points="565.8,123.69,569.8,114.69,565.8,118.69,561.8,114.69,565.8,123.69" style="stroke:#181818;stroke-width:1.0;"/><text fill="#000000" font-family="sans-serif" font-size="13" lengthAdjust="spacing" textLength="229.5757" x="566.8" y="90.0669">Nieuwe bestelling van een garagist</text></g><!--link Voorraad_controle to Order_magazijn--><g id="link_Voorraad_controle_Order_magazijn"><path d="M550.23,164.25 C533.07,185.48 509.3722,214.7741 492.1922,236.0241 " fill="none" id="Voorraad_controle-to-Order_magazijn" style="stroke:#181818;stroke-width:1.0;"/><polygon fill="#181818" points="488.42,240.69,497.1889,236.206,491.5635,236.8018,490.9677,231.1764,488.42,240.69" style="stroke:#181818;stroke-width:1.0;"/><text fill="#000000" font-family="sans-serif" font-size="13" lengthAdjust="spacing" textLength="81.0913" x="525.8" y="207.0669">Op voorraad</text></g><!--link Voorraad_controle to Geannuleerd--><g id="link_Voorraad_controle_Geannuleerd"><path d="M591.29,164.45 C615.37,185.21 647.8,220.52 647.8,260 C647.8,260 647.8,260 647.8,613 C647.8,643.92 646.83,656.33 625.8,679 C608.27,697.89 588.0484,707.9333 565.0384,715.2433 " fill="none" id="Voorraad_controle-to-Geannuleerd" style="stroke:#181818;stroke-width:1.0;"/><polygon fill="#181818" points="559.32,717.06,569.1087,718.1473,564.0853,715.5461,566.6865,710.5228,559.32,717.06" style="stroke:#181818;stroke-width:1.0;"/><text fill="#000000" font-family="sans-serif" font-size="13" lengthAdjust="spacing" textLength="214.4619" x="648.8" y="441.0669">Niet op voorraad (administratief)</text></g><!--link Order_magazijn to Order_uitgeprint--><g id="link_Order_magazijn_Order_uitgeprint"><path d="M466.1,281.25 C458.72,302.48 448.8808,330.7729 441.4908,352.0229 " fill="none" id="Order_magazijn-to-Order_uitgeprint" style="stroke:#181818;stroke-width:1.0;"/><polygon fill="#181818" points="439.52,357.69,446.2543,350.5032,441.1623,352.9674,438.6982,347.8755,439.52,357.69" style="stroke:#181818;stroke-width:1.0;"/><text fill="#000000" font-family="sans-serif" font-size="13" lengthAdjust="spacing" textLength="162.5889" x="455.8" y="324.0669">Print "Orderverzamelijst"</text></g><!--link Order_uitgeprint to Order_verzameld--><g id="link_Order_uitgeprint_Order_verzameld"><path d="M426.94,398.25 C420.48,419.48 411.8851,447.6994 405.4251,468.9494 " fill="none" id="Order_uitgeprint-to-Order_verzameld" style="stroke:#181818;stroke-width:1.0;"/><polygon fill="#181818" points="403.68,474.69,410.1248,467.2425,405.1343,469.9062,402.4706,464.9157,403.68,474.69" style="stroke:#181818;stroke-width:1.0;"/><text fill="#000000" font-family="sans-serif" font-size="13" lengthAdjust="spacing" textLength="183.3584" x="417.8" y="441.0669">Artikelen worden verzameld</text></g><!--link Order_verzameld to Order_controle--><g id="link_Order_verzameld_Order_controle"><path d="M389.89,515.24 C383.26,529.52 372.65,548.75 358.8,562 C346.25,574.01 335.5245,581.1928 320.3345,588.8728 " fill="none" id="Order_verzameld-to-Order_controle" style="stroke:#181818;stroke-width:1.0;"/><polygon fill="#181818" points="314.98,591.58,324.8166,591.0888,319.4421,589.324,321.207,583.9495,314.98,591.58" style="stroke:#181818;stroke-width:1.0;"/><text fill="#000000" font-family="sans-serif" font-size="13" lengthAdjust="spacing" textLength="225.0054" x="372.8" y="558.0669">Controle t.o.v. "Orderverzamelijst"</text></g><!--link Order_controle to Order_verzameld--><g id="link_Order_controle_Order_verzameld"><path d="M190.14,591.6 C161.87,580.7 140.31,565.18 156.8,545 C173.11,525.04 221.7037,513.811 274.7837,506.661 " fill="none" id="Order_controle-to-Order_verzameld" style="stroke:#181818;stroke-width:1.0;"/><polygon fill="#181818" points="280.73,505.86,271.2766,503.0973,275.7748,506.5275,272.3445,511.0257,280.73,505.86" style="stroke:#181818;stroke-width:1.0;"/><text fill="#000000" font-family="sans-serif" font-size="13" lengthAdjust="spacing" textLength="192.8608" x="157.8" y="558.0669">Pakfout, opnieuw verzamelen</text></g><!--link Order_controle to Order_voltooid--><g id="link_Order_controle_Order_voltooid"><path d="M182.42,632.46 C168.35,639.47 155.52,649.02 146.8,662 C137.65,675.62 138.197,688.7911 141.747,702.9111 " fill="none" id="Order_controle-to-Order_voltooid" style="stroke:#181818;stroke-width:1.0;"/><polygon fill="#181818" points="143.21,708.73,144.8948,699.0263,141.9909,703.8809,137.1363,700.9769,143.21,708.73" style="stroke:#181818;stroke-width:1.0;"/><text fill="#000000" font-family="sans-serif" font-size="13" lengthAdjust="spacing" textLength="179.0229" x="147.8" y="675.0669">Goedgekeurd, print pakbon</text></g><!--link Order_controle to Geannuleerd--><g id="link_Order_controle_Geannuleerd"><path d="M292.33,632.21 C312.15,646.48 340.73,665.7 367.8,679 C396.76,693.23 425.1724,703.4126 452.6024,711.9726 " fill="none" id="Order_controle-to-Geannuleerd" style="stroke:#181818;stroke-width:1.0;"/><polygon fill="#181818" points="458.33,713.76,450.9302,707.2605,453.557,712.2705,448.547,714.8973,458.33,713.76" style="stroke:#181818;stroke-width:1.0;"/><text fill="#000000" font-family="sans-serif" font-size="13" lengthAdjust="spacing" textLength="252.1226" x="368.8" y="675.0669">Niet op voorraad (werkelijke voorraad)</text></g><!--link Order_voltooid to Order_ingepakt--><g id="link_Order_voltooid_Order_ingepakt"><path d="M149.8,749.25 C149.8,770.48 149.8,798.44 149.8,819.69 " fill="none" id="Order_voltooid-to-Order_ingepakt" style="stroke:#181818;stroke-width:1.0;"/><polygon fill="#181818" points="149.8,825.69,153.8,816.69,149.8,820.69,145.8,816.69,149.8,825.69" style="stroke:#181818;stroke-width:1.0;"/><text fill="#000000" font-family="sans-serif" font-size="13" lengthAdjust="spacing" textLength="228.7124" x="150.8" y="792.0669">Artikelen en pakbon in krat pakken</text></g><!--SRC=[XLJ1Rk8m4BtxAqRqG5S2Fc0FArLxwAtjgLSquC7h9h6ZYHEqVFsE0tOSIBKI4k3CUtxpteC_LXDGquQ_eAaxics3zKwfDqlzcVQUDJ5ijx_WqtjcHBq_UXVOrmG_uJe41-e2rRLr1WPqGEJ08AEnNL2Fi4Zs7cdt3Hgys2ydJEyj3BV9Ro2lXCxrDH7hwyq1_0I2PzIDTN8ZOx1q-g7KtHtJjRqDXbgsBWZHn_Y-6fyCn1TigBPVNLYfX-698Gr69IySR4Mrx7oEPZd83zNzy4HGUFWxVGmxlnjsYrBK7QfGuklWlOr2NZrfGnNrh3TmLTnYTP0mlqSNUtnWTV9zs8YhBiQQzw15Wl_5SIQkeloAyc7E98kUb4XtIDG6c3agh-iAO1rKacpyMiafAAMwW85WTUlWMDGLO0TbSzDGCfbZFZSvu_13rn9Yb0KEaI5No4ZFUx5tHCxhDOCbvyRqO6fGWPiE4_8p9Iw_8imE77tJYiabTEhNqd9BB0LuUSq33RAQDRFHbD9yL2w8qKP-oIHRWoT3x5rfJOxqoR3y9TneojuyCUcOf5BhzVeV]--></g></svg>