<svg xmlns="http://www.w3.org/2000/svg" xmlns:xlink="http://www.w3.org/1999/xlink" contentStyleType="text/css" height="643px" preserveAspectRatio="none" style="width:424px;height:643px;background:#FFFFFF;" version="1.1" viewBox="0 0 424 643" width="424px" zoomAndPan="magnify"><defs/><g><path d="M19.5,7 L398.0022,7 A12.5,12.5 0 0 1 410.5022,19.5 L410.5022,33.2969 L7,33.2969 L7,19.5 A12.5,12.5 0 0 1 19.5,7 " fill="#F1F1F1" style="stroke:#F1F1F1;stroke-width:1.0;"/><rect fill="none" height="630.2969" rx="12.5" ry="12.5" style="stroke:#181818;stroke-width:0.5;" width="403.5022" x="7" y="7"/><line style="stroke:#181818;stroke-width:0.5;" x1="7" x2="410.5022" y1="33.2969" y2="33.2969"/><text fill="#000000" font-family="sans-serif" font-size="14" lengthAdjust="spacing" textLength="144.1836" x="136.6593" y="24.9951">Transporteren_order</text><rect fill="#F1F1F1" height="40" rx="12.5" ry="12.5" style="stroke:#181818;stroke-width:0.5;" width="196.5801" x="71.66" y="45.2969"/><text fill="#000000" font-family="sans-serif" font-size="14" lengthAdjust="spacing" textLength="186.5801" x="76.66" y="70.1436">IsOrderklaarVoorTransport</text><rect fill="#F1F1F1" height="40" rx="12.5" ry="12.5" style="stroke:#181818;stroke-width:0.5;" width="117.3037" x="111.3" y="138.2969"/><text fill="#000000" font-family="sans-serif" font-size="14" lengthAdjust="spacing" textLength="107.3037" x="116.3" y="163.1436">Bus volgeladen</text><rect fill="#F1F1F1" height="40" rx="12.5" ry="12.5" style="stroke:#181818;stroke-width:0.5;" width="170.4053" x="84.75" y="215.2969"/><text fill="#000000" font-family="sans-serif" font-size="14" lengthAdjust="spacing" textLength="160.4053" x="89.75" y="240.1436">Beginnen aan de route</text><rect fill="#F1F1F1" height="40" rx="12.5" ry="12.5" style="stroke:#181818;stroke-width:0.5;" width="164.1367" x="87.88" y="308.2969"/><text fill="#000000" font-family="sans-serif" font-size="14" lengthAdjust="spacing" textLength="154.1367" x="92.88" y="333.1436">Aangekomen garagist</text><rect fill="#F1F1F1" height="40" rx="12.5" ry="12.5" style="stroke:#181818;stroke-width:0.5;" width="77.1494" x="131.37" y="401.2969"/><text fill="#000000" font-family="sans-serif" font-size="14" lengthAdjust="spacing" textLength="67.1494" x="136.37" y="426.1436">Afleveren</text><rect fill="#008000" height="40" rx="12.5" ry="12.5" style="stroke:#181818;stroke-width:0.5;" width="141.8994" x="19" y="494.2969"/><text fill="#000000" font-family="sans-serif" font-size="14" lengthAdjust="spacing" textLength="131.8994" x="24" y="519.1436">Aflevering voltooid</text><rect fill="#FF0000" height="40" rx="12.5" ry="12.5" style="stroke:#181818;stroke-width:0.5;" width="136.9434" x="208.48" y="494.2969"/><text fill="#000000" font-family="sans-serif" font-size="14" lengthAdjust="spacing" textLength="126.9434" x="213.48" y="519.1436">Aflevering mislukt</text><rect fill="#F1F1F1" height="40" rx="12.5" ry="12.5" style="stroke:#181818;stroke-width:0.5;" width="155.4756" x="107.21" y="587.2969"/><text fill="#000000" font-family="sans-serif" font-size="14" lengthAdjust="spacing" textLength="145.4756" x="112.21" y="612.1436">Terug naar vestiging</text><!--link IsOrderklaarVoorTransport to Krat_inladen--><g id="link_IsOrderklaarVoorTransport_Krat_inladen"><path d="M169.95,85.5969 C169.95,101.0369 169.95,116.5869 169.95,132.0269 " fill="none" id="IsOrderklaarVoorTransport-to-Krat_inladen" style="stroke:#181818;stroke-width:1.0;"/><polygon fill="#181818" points="169.95,138.0269,173.95,129.0269,169.95,133.0269,165.95,129.0269,169.95,138.0269" style="stroke:#181818;stroke-width:1.0;"/><text fill="#000000" font-family="sans-serif" font-size="13" lengthAdjust="spacing" textLength="110.5127" x="170.95" y="116.3638">Krat laden in bus</text></g><!--link Krat_inladen to Start_transporteren--><g id="link_Krat_inladen_Start_transporteren"><path d="M169.95,178.6069 C169.95,189.8069 169.95,197.8569 169.95,209.0469 " fill="none" id="Krat_inladen-to-Start_transporteren" style="stroke:#181818;stroke-width:1.0;"/><polygon fill="#181818" points="169.95,215.0469,173.95,206.0469,169.95,210.0469,165.95,206.0469,169.95,215.0469" style="stroke:#181818;stroke-width:1.0;"/></g><!--link Start_transporteren to Locatie--><g id="link_Start_transporteren_Locatie"><path d="M169.95,255.5969 C169.95,271.0369 169.95,286.5869 169.95,302.0269 " fill="none" id="Start_transporteren-to-Locatie" style="stroke:#181818;stroke-width:1.0;"/><polygon fill="#181818" points="169.95,308.0269,173.95,299.0269,169.95,303.0269,165.95,299.0269,169.95,308.0269" style="stroke:#181818;stroke-width:1.0;"/><text fill="#000000" font-family="sans-serif" font-size="13" lengthAdjust="spacing" textLength="131.79" x="170.95" y="286.3638">Rijden naar garagist</text></g><!--link Locatie to Afleveren--><g id="link_Locatie_Afleveren"><path d="M169.95,348.5969 C169.95,364.0369 169.95,379.5869 169.95,395.0269 " fill="none" id="Locatie-to-Afleveren" style="stroke:#181818;stroke-width:1.0;"/><polygon fill="#181818" points="169.95,401.0269,173.95,392.0269,169.95,396.0269,165.95,392.0269,169.95,401.0269" style="stroke:#181818;stroke-width:1.0;"/><text fill="#000000" font-family="sans-serif" font-size="13" lengthAdjust="spacing" textLength="84.0811" x="170.95" y="379.3638">Krat uitladen</text></g><!--link Afleveren to Afleveren_voltooid--><g id="link_Afleveren_Afleveren_voltooid"><path d="M130.99,424.5069 C106.55,428.1469 76.78,437.2069 60.95,459.2969 C53.2,470.1069 56.0668,478.6461 64.9868,489.2461 " fill="none" id="Afleveren-to-Afleveren_voltooid" style="stroke:#181818;stroke-width:1.0;"/><polygon fill="#181818" points="68.85,493.8369,66.1157,484.3752,65.6307,490.0112,59.9946,489.5261,68.85,493.8369" style="stroke:#181818;stroke-width:1.0;"/><text fill="#000000" font-family="sans-serif" font-size="13" lengthAdjust="spacing" textLength="196.5742" x="61.95" y="472.3638">Artikelen en pakbon afleveren</text></g><!--link Afleveren to Afleveren_mislukt--><g id="link_Afleveren_Afleveren_mislukt"><path d="M208.83,430.6369 C226.22,436.1569 245.73,445.0869 258.95,459.2969 C267.77,468.7769 271.0763,476.8168 273.3763,488.1468 " fill="none" id="Afleveren-to-Afleveren_mislukt" style="stroke:#181818;stroke-width:1.0;"/><polygon fill="#181818" points="274.57,494.0269,276.6996,484.411,273.5753,489.1268,268.8595,486.0025,274.57,494.0269" style="stroke:#181818;stroke-width:1.0;"/><text fill="#000000" font-family="sans-serif" font-size="13" lengthAdjust="spacing" textLength="130.5522" x="269.95" y="472.3638">Order retour nemen</text></g><!--link Afleveren_voltooid to Retour_vestiging--><g id="link_Afleveren_voltooid_Retour_vestiging"><path d="M91.32,534.6569 C93.02,545.8869 96.76,559.6569 104.95,569.2969 C110.99,576.4069 113.5007,579.2424 121.7307,583.9824 " fill="none" id="Afleveren_voltooid-to-Retour_vestiging" style="stroke:#181818;stroke-width:1.0;"/><polygon fill="#181818" points="126.93,586.9769,121.1274,579.0189,122.5972,584.4815,117.1347,585.9513,126.93,586.9769" style="stroke:#181818;stroke-width:1.0;"/><text fill="#000000" font-family="sans-serif" font-size="13" lengthAdjust="spacing" textLength="135.0845" x="105.95" y="565.3638">Terug naar vestiging</text></g><!--link Afleveren_mislukt to Retour_vestiging--><g id="link_Afleveren_mislukt_Retour_vestiging"><path d="M268.82,534.6169 C263.49,545.6869 255.69,559.3169 245.95,569.2969 C239.46,575.9469 236.6035,578.6581 228.6435,583.7181 " fill="none" id="Afleveren_mislukt-to-Retour_vestiging" style="stroke:#181818;stroke-width:1.0;"/><polygon fill="#181818" points="223.58,586.9369,233.3212,585.4844,227.7996,584.2546,229.0295,578.733,223.58,586.9369" style="stroke:#181818;stroke-width:1.0;"/><text fill="#000000" font-family="sans-serif" font-size="13" lengthAdjust="spacing" textLength="135.0845" x="258.95" y="565.3638">Terug naar vestiging</text></g><!--SRC=[bPB1QiCm44Jl-eebEUIK7-YXaDvA2uKqz6esyLPLxKXcjGgKqd_lIewJs9X2ZI-ovysiP_tXQW8wTl85DSK3kqvSyCQy2Wh1Zj77Bh0Gawy2ryJmRGpezHXVyh5f4Vaj1Bv8ORs-XoT6gPnliIOFT-K8_S5vsATOB4QYJ86cibHocmhGvyszoinpEA0uqf2j-yn6NWS2YupMHIde8CdopNjBfmAVfqfEoW1zolNrI5oTGYiXk5gf3Ojhg5M9tXqs- -011-6V9aSNszI8UfJgW4b2Ol1qpF5Zz9gOFRP5MPqeYhFEMxNO4IVRV-pbySHYoFkFGx68PVcBXnH1nx1K2be0nl7AHbfItEj3HAz_4d18GWMPMTmjk45lgGbQmMLf1JilRIJjlonFFxHJf3EbBItJ9ESAdtkPi4DRIwRw5fohgQ3JIetvqIsQrMhr2m00]--></g></svg>