<svg xmlns="http://www.w3.org/2000/svg" xmlns:xlink="http://www.w3.org/1999/xlink" contentStyleType="text/css" height="1115px" preserveAspectRatio="none" style="width:796px;height:1115px;background:#FFFFFF;" version="1.1" viewBox="0 0 796 1115" width="796px" zoomAndPan="magnify"><defs/><g><ellipse cx="513.94" cy="16" fill="#222222" rx="10" ry="10" style="stroke:#222222;stroke-width:1.0;"/><g id="Nieuwe_order"><rect fill="#F1F1F1" height="50" rx="12.5" ry="12.5" style="stroke:#181818;stroke-width:0.5;" width="116.4893" x="455.69" y="87"/><line style="stroke:#181818;stroke-width:0.5;" x1="455.69" x2="572.1793" y1="113.2969" y2="113.2969"/><text fill="#000000" font-family="sans-serif" font-size="14" lengthAdjust="spacing" textLength="96.4893" x="465.69" y="104.9951">Nieuwe_order</text></g><g id="Voorraad_controle"><rect fill="#F1F1F1" height="50" rx="12.5" ry="12.5" style="stroke:#181818;stroke-width:0.5;" width="148.7139" x="439.58" y="214"/><line style="stroke:#181818;stroke-width:0.5;" x1="439.58" x2="588.2939" y1="240.2969" y2="240.2969"/><text fill="#000000" font-family="sans-serif" font-size="14" lengthAdjust="spacing" textLength="128.7139" x="449.58" y="231.9951">Voorraad_controle</text></g><g id="Order_magazijn"><rect fill="#F1F1F1" height="50" rx="12.5" ry="12.5" style="stroke:#181818;stroke-width:0.5;" width="130.7148" x="355.58" y="341"/><line style="stroke:#181818;stroke-width:0.5;" x1="355.58" x2="486.2948" y1="367.2969" y2="367.2969"/><text fill="#000000" font-family="sans-serif" font-size="14" lengthAdjust="spacing" textLength="110.7148" x="365.58" y="358.9951">Order_magazijn</text></g><g id="Geannuleerd"><rect fill="#F1F1F1" height="50" rx="12.5" ry="12.5" style="stroke:#181818;stroke-width:0.5;" width="110.4189" x="378.73" y="849"/><line style="stroke:#181818;stroke-width:0.5;" x1="378.73" x2="489.1489" y1="875.2969" y2="875.2969"/><text fill="#000000" font-family="sans-serif" font-size="14" lengthAdjust="spacing" textLength="90.4189" x="388.73" y="866.9951">Geannuleerd</text></g><g id="Order_uitgeprint"><rect fill="#F1F1F1" height="50" rx="12.5" ry="12.5" style="stroke:#181818;stroke-width:0.5;" width="135.6777" x="290.1" y="468"/><line style="stroke:#181818;stroke-width:0.5;" x1="290.1" x2="425.7777" y1="494.2969" y2="494.2969"/><text fill="#000000" font-family="sans-serif" font-size="14" lengthAdjust="spacing" textLength="115.6777" x="300.1" y="485.9951">Order_uitgeprint</text></g><g id="Order_verzameld"><rect fill="#F1F1F1" height="50" rx="12.5" ry="12.5" style="stroke:#181818;stroke-width:0.5;" width="140.6406" x="252.62" y="595"/><line style="stroke:#181818;stroke-width:0.5;" x1="252.62" x2="393.2606" y1="621.2969" y2="621.2969"/><text fill="#000000" font-family="sans-serif" font-size="14" lengthAdjust="spacing" textLength="120.6406" x="262.62" y="612.9951">Order_verzameld</text></g><g id="Order_controle"><rect fill="#F1F1F1" height="50" rx="12.5" ry="12.5" style="stroke:#181818;stroke-width:0.5;" width="124.4805" x="129.7" y="722"/><line style="stroke:#181818;stroke-width:0.5;" x1="129.7" x2="254.1805" y1="748.2969" y2="748.2969"/><text fill="#000000" font-family="sans-serif" font-size="14" lengthAdjust="spacing" textLength="104.4805" x="139.7" y="739.9951">Order_controle</text></g><g id="Order_bevestigd"><rect fill="#F1F1F1" height="50" rx="12.5" ry="12.5" style="stroke:#181818;stroke-width:0.5;" width="135.876" x="7" y="849"/><line style="stroke:#181818;stroke-width:0.5;" x1="7" x2="142.876" y1="875.2969" y2="875.2969"/><text fill="#000000" font-family="sans-serif" font-size="14" lengthAdjust="spacing" textLength="115.876" x="17" y="866.9951">Order_bevestigd</text></g><g id="Order_compleet"><rect fill="#F1F1F1" height="50" rx="12.5" ry="12.5" style="stroke:#181818;stroke-width:0.5;" width="132.4238" x="8.73" y="976"/><line style="stroke:#181818;stroke-width:0.5;" x1="8.73" x2="141.1538" y1="1002.2969" y2="1002.2969"/><text fill="#000000" font-family="sans-serif" font-size="14" lengthAdjust="spacing" textLength="112.4238" x="18.73" y="993.9951">Order_compleet</text></g><ellipse cx="74.94" cy="1098" fill="none" rx="11" ry="11" style="stroke:#222222;stroke-width:1.0;"/><ellipse cx="74.94" cy="1098" fill="#222222" rx="6" ry="6" style="stroke:#222222;stroke-width:1.0;"/><!--link *start* to Nieuwe_order--><g id="link_*start*_Nieuwe_order"><path d="M513.94,26.36 C513.94,40.29 513.94,60.95 513.94,80.65 " fill="none" id="*start*-to-Nieuwe_order" style="stroke:#181818;stroke-width:1.0;"/><polygon fill="#181818" points="513.94,86.65,517.94,77.65,513.94,81.65,509.94,77.65,513.94,86.65" style="stroke:#181818;stroke-width:1.0;"/></g><!--link Nieuwe_order to Voorraad_controle--><g id="link_Nieuwe_order_Voorraad_controle"><path d="M513.94,137.4 C513.94,159.42 513.94,185.66 513.94,207.66 " fill="none" id="Nieuwe_order-to-Voorraad_controle" style="stroke:#181818;stroke-width:1.0;"/><polygon fill="#181818" points="513.94,213.66,517.94,204.66,513.94,208.66,509.94,204.66,513.94,213.66" style="stroke:#181818;stroke-width:1.0;"/><text fill="#000000" font-family="sans-serif" font-size="13" lengthAdjust="spacing" textLength="229.5757" x="514.94" y="180.0669">Nieuwe bestelling van een garagist</text></g><!--link Voorraad_controle to Order_magazijn--><g id="link_Voorraad_controle_Order_magazijn"><path d="M489.43,264.35 C480.94,273.32 471.63,283.8 463.94,294 C452.84,308.73 445.05,321.261 437.07,335.331 " fill="none" id="Voorraad_controle-to-Order_magazijn" style="stroke:#181818;stroke-width:1.0;"/><polygon fill="#181818" points="434.11,340.55,442.0294,334.6948,436.5767,336.2008,435.0707,330.7481,434.11,340.55" style="stroke:#181818;stroke-width:1.0;"/><text fill="#000000" font-family="sans-serif" font-size="13" lengthAdjust="spacing" textLength="81.0913" x="464.94" y="307.0669">Op voorraad</text></g><!--link Voorraad_controle to Geannuleerd--><g id="link_Voorraad_controle_Geannuleerd"><path d="M533.26,264.26 C550.46,288.36 572.94,327.08 572.94,365 C572.94,365 572.94,365 572.94,748 C572.94,781.04 572.71,794.15 550.94,819 C534.87,837.34 516.8748,847.7084 495.0748,856.0384 " fill="none" id="Voorraad_controle-to-Geannuleerd" style="stroke:#181818;stroke-width:1.0;"/><polygon fill="#181818" points="489.47,858.18,499.3049,858.7041,494.1406,856.3953,496.4494,851.231,489.47,858.18" style="stroke:#181818;stroke-width:1.0;"/><text fill="#000000" font-family="sans-serif" font-size="13" lengthAdjust="spacing" textLength="214.4619" x="573.94" y="561.0669">Niet op voorraad (administratief)</text></g><!--link Order_magazijn to Order_uitgeprint--><g id="link_Order_magazijn_Order_uitgeprint"><path d="M401.65,391.37 C395.14,400.34 388.19,410.81 382.94,421 C375.27,435.87 370.7894,447.8868 366.4594,461.9168 " fill="none" id="Order_magazijn-to-Order_uitgeprint" style="stroke:#181818;stroke-width:1.0;"/><polygon fill="#181818" points="364.69,467.65,371.1662,460.2298,366.1645,462.8724,363.522,457.8706,364.69,467.65" style="stroke:#181818;stroke-width:1.0;"/><text fill="#000000" font-family="sans-serif" font-size="13" lengthAdjust="spacing" textLength="162.5889" x="383.94" y="434.0669">Print "Orderverzamelijst"</text></g><!--link Order_uitgeprint to Order_verzameld--><g id="link_Order_uitgeprint_Order_verzameld"><path d="M351.11,518.4 C344.94,540.42 337.5278,566.8822 331.3678,588.8822 " fill="none" id="Order_uitgeprint-to-Order_verzameld" style="stroke:#181818;stroke-width:1.0;"/><polygon fill="#181818" points="329.75,594.66,336.0285,587.0718,331.0981,589.8452,328.3248,584.9148,329.75,594.66" style="stroke:#181818;stroke-width:1.0;"/><text fill="#000000" font-family="sans-serif" font-size="13" lengthAdjust="spacing" textLength="183.3584" x="342.94" y="561.0669">Artikelen worden verzameld</text></g><!--link Order_verzameld to Order_controle--><g id="link_Order_verzameld_Order_controle"><path d="M313.46,645.47 C306.84,660.23 296.88,678.69 283.94,692 C272.71,703.55 263.6747,710.4703 249.7847,718.5603 " fill="none" id="Order_verzameld-to-Order_controle" style="stroke:#181818;stroke-width:1.0;"/><polygon fill="#181818" points="244.6,721.58,254.3902,720.5069,248.9206,719.0635,250.3639,713.5939,244.6,721.58" style="stroke:#181818;stroke-width:1.0;"/><text fill="#000000" font-family="sans-serif" font-size="13" lengthAdjust="spacing" textLength="225.0054" x="296.94" y="688.0669">Controle t.o.v. "Orderverzamelijst"</text></g><!--link Order_controle to Order_verzameld--><g id="link_Order_controle_Order_verzameld"><path d="M129.35,729.73 C94.87,717.66 62.62,699.13 81.94,675 C102.98,648.73 182.8883,635.0464 246.1683,627.8664 " fill="none" id="Order_controle-to-Order_verzameld" style="stroke:#181818;stroke-width:1.0;"/><polygon fill="#181818" points="252.13,627.19,242.7364,624.2302,247.1619,627.7537,243.6383,632.1792,252.13,627.19" style="stroke:#181818;stroke-width:1.0;"/><text fill="#000000" font-family="sans-serif" font-size="13" lengthAdjust="spacing" textLength="192.8608" x="82.94" y="688.0669">Pakfout, opnieuw verzamelen</text></g><!--link Order_controle to Order_bevestigd--><g id="link_Order_controle_Order_bevestigd"><path d="M129.22,761.29 C107.28,769.27 84.9,781.95 71.94,802 C63.1,815.68 62.9249,828.2606 66.0349,842.9206 " fill="none" id="Order_controle-to-Order_bevestigd" style="stroke:#181818;stroke-width:1.0;"/><polygon fill="#181818" points="67.28,848.79,69.3252,839.1558,66.2424,843.8988,61.4994,840.816,67.28,848.79" style="stroke:#181818;stroke-width:1.0;"/><text fill="#000000" font-family="sans-serif" font-size="13" lengthAdjust="spacing" textLength="179.0229" x="72.94" y="815.0669">Goedgekeurd, print pakbon</text></g><!--link Order_controle to Geannuleerd--><g id="link_Order_controle_Geannuleerd"><path d="M222.49,772.48 C241.89,787.24 267.96,805.7 292.94,819 C320.01,833.41 346.1312,843.9356 372.6612,853.2856 " fill="none" id="Order_controle-to-Geannuleerd" style="stroke:#181818;stroke-width:1.0;"/><polygon fill="#181818" points="378.32,855.28,371.1613,848.5159,373.6043,853.618,368.5022,856.061,378.32,855.28" style="stroke:#181818;stroke-width:1.0;"/><text fill="#000000" font-family="sans-serif" font-size="13" lengthAdjust="spacing" textLength="252.1226" x="293.94" y="815.0669">Niet op voorraad (werkelijke voorraad)</text></g><!--link Order_bevestigd to Order_compleet--><g id="link_Order_bevestigd_Order_compleet"><path d="M74.94,899.4 C74.94,921.42 74.94,947.66 74.94,969.66 " fill="none" id="Order_bevestigd-to-Order_compleet" style="stroke:#181818;stroke-width:1.0;"/><polygon fill="#181818" points="74.94,975.66,78.94,966.66,74.94,970.66,70.94,966.66,74.94,975.66" style="stroke:#181818;stroke-width:1.0;"/><text fill="#000000" font-family="sans-serif" font-size="13" lengthAdjust="spacing" textLength="228.7124" x="75.94" y="942.0669">Artikelen en pakbon in krat pakken</text></g><!--link Order_compleet to *end*--><g id="link_Order_compleet_*end*"><path d="M74.94,1026.46 C74.94,1046.04 74.94,1066.49 74.94,1080.8 " fill="none" id="Order_compleet-to-*end*" style="stroke:#181818;stroke-width:1.0;"/><polygon fill="#181818" points="74.94,1086.8,78.94,1077.8,74.94,1081.8,70.94,1077.8,74.94,1086.8" style="stroke:#181818;stroke-width:1.0;"/></g><!--SRC=[XL71Ri8m3BtdAomk30Hym0wJfXsu0QTT449cDL58wrHkMYI-VaaBf2kWLPNQn7xFxprlfpkOppzWPQW-qzv9Hg9K_zIMlvqJGSpsFuwzk9pW_Gg10rMUyjomXWOPY1Wq2cfJUVK8YsJhIBilKEF5d3WmhKjehfql84j2vZedagoRxC4b4BnXLXWE4mMzeUD4AJKOakRMncignR0FJ9lsEseh3Sa52yhDgV8ZzT2S66wDKSgdU6Cf3wRFCIs6Ur4DcnD1ByIlswzVk4MpU2f53L29w41DID_eg6JfADDagPPi1fta4kt1yMjutyW6xT7LVXPovRZOkn5wIl3VGiuaDkgtTB-St8marVr8YZAmUVYJQNWx3s0OR5XkFDfm2ocKAovIRQSxrJxZyVWN]--></g></svg>